<mxfile host="Electron" agent="Mozilla/5.0 (Windows NT 10.0; Win64; x64) AppleWebKit/537.36 (KHTML, like Gecko) draw.io/27.0.9 Chrome/134.0.6998.205 Electron/35.4.0 Safari/537.36" version="27.0.9" pages="4">
  <diagram name="translation" id="xa2-bfLG4NFff1P7d80x">
    <mxGraphModel dx="1226" dy="736" grid="0" gridSize="10" guides="1" tooltips="1" connect="1" arrows="1" fold="1" page="1" pageScale="1" pageWidth="827" pageHeight="1169" background="none" math="0" shadow="0">
      <root>
        <mxCell id="0" />
        <mxCell id="1" parent="0" />
        <mxCell id="hopylSu6kimWQgtTDceS-67" value="" style="group" parent="1" vertex="1" connectable="0">
          <mxGeometry x="72.5" y="7" width="683" height="256" as="geometry" />
        </mxCell>
        <mxCell id="hopylSu6kimWQgtTDceS-64" value="" style="rounded=1;whiteSpace=wrap;html=1;fillColor=none;arcSize=7;dashed=1;dashPattern=8 8;" parent="hopylSu6kimWQgtTDceS-67" vertex="1">
          <mxGeometry width="683" height="256" as="geometry" />
        </mxCell>
        <mxCell id="hopylSu6kimWQgtTDceS-2" value="[Table(&quot;Customers&quot;)]&lt;br&gt;class Customer&lt;br&gt;{&lt;br&gt;&amp;nbsp; &amp;nbsp;&amp;nbsp;[Key]&lt;br&gt;&amp;nbsp; &amp;nbsp; int CustomerID { get; set; }&lt;br&gt;&lt;br&gt;&amp;nbsp; &amp;nbsp;&amp;nbsp;[MaxLength(200)]&lt;br&gt;&amp;nbsp; &amp;nbsp; string CustomerName { get; set; }&lt;br&gt;&lt;br&gt;&amp;nbsp; &amp;nbsp;&amp;nbsp;[Precision(18, 2)]&lt;br&gt;&amp;nbsp; &amp;nbsp; decimal? CreditLimit { get; set; }&lt;br&gt;}" style="text;whiteSpace=wrap;fillColor=none;strokeColor=#6c8ebf;rounded=0;arcSize=16;spacingLeft=15;spacingTop=5;fontSize=14;html=1;strokeWidth=4;" parent="hopylSu6kimWQgtTDceS-67" vertex="1">
          <mxGeometry x="18" y="13" width="270" height="230" as="geometry" />
        </mxCell>
        <mxCell id="hopylSu6kimWQgtTDceS-3" value="var result = context.Customers&lt;br&gt;&amp;nbsp; &amp;nbsp; .Where(c =&amp;gt; c.CreditLimit &amp;gt; 100)&lt;div&gt;&amp;nbsp; &amp;nbsp; .Where(c =&amp;gt; c.CreditLimit &amp;lt;= 500)&lt;br&gt;&amp;nbsp; &amp;nbsp; .OrderBy(c =&amp;gt; c.CustomerName)&lt;br&gt;&amp;nbsp; &amp;nbsp; .Select(c =&amp;gt; c.CustomerID)&lt;br&gt;&amp;nbsp; &amp;nbsp; .ToList();&lt;/div&gt;" style="text;whiteSpace=wrap;fillColor=none;strokeColor=#d79b00;rounded=0;arcSize=16;spacingLeft=15;spacingTop=5;fontSize=14;textShadow=0;labelBorderColor=none;labelBackgroundColor=none;html=1;strokeWidth=3;" parent="hopylSu6kimWQgtTDceS-67" vertex="1">
          <mxGeometry x="399.5" y="63" width="270" height="130" as="geometry" />
        </mxCell>
        <mxCell id="hopylSu6kimWQgtTDceS-82" value="" style="rounded=0;whiteSpace=wrap;html=1;container=0;flipV=0;" parent="1" vertex="1">
          <mxGeometry x="279" y="351" width="270" height="130" as="geometry" />
        </mxCell>
        <mxCell id="hopylSu6kimWQgtTDceS-83" value="" style="text;whiteSpace=wrap;fillColor=#6C8EBF;strokeColor=#6c8ebf;rounded=1;arcSize=16;spacingLeft=15;spacingTop=5;fontSize=14;html=1;container=0;" parent="1" vertex="1">
          <mxGeometry x="299" y="361" width="80" height="30" as="geometry" />
        </mxCell>
        <mxCell id="hopylSu6kimWQgtTDceS-84" value="" style="text;whiteSpace=wrap;fillColor=#D79B00;strokeColor=#d79b00;rounded=1;arcSize=16;spacingLeft=15;spacingTop=5;fontSize=14;textShadow=0;labelBorderColor=none;labelBackgroundColor=none;html=1;container=0;" parent="1" vertex="1">
          <mxGeometry x="299" y="401" width="80" height="30" as="geometry" />
        </mxCell>
        <mxCell id="hopylSu6kimWQgtTDceS-85" value="&lt;font style=&quot;font-size: 14px;&quot;&gt;TRANSLATE&lt;/font&gt;" style="rounded=1;fillColor=#0057D8;strokeColor=none;html=1;whiteSpace=wrap;fontColor=#ffffff;align=center;verticalAlign=middle;fontStyle=0;fontSize=12;sketch=0;container=0;" parent="1" vertex="1">
          <mxGeometry x="369" y="441" width="94" height="30" as="geometry" />
        </mxCell>
        <mxCell id="hopylSu6kimWQgtTDceS-89" value="" style="group" parent="1" vertex="1" connectable="0">
          <mxGeometry x="279" y="1039" width="270" height="130" as="geometry" />
        </mxCell>
        <mxCell id="hopylSu6kimWQgtTDceS-76" value="" style="rounded=0;whiteSpace=wrap;html=1;container=0;flipV=0;" parent="hopylSu6kimWQgtTDceS-89" vertex="1">
          <mxGeometry width="270" height="130" as="geometry" />
        </mxCell>
        <mxCell id="hopylSu6kimWQgtTDceS-77" value="" style="text;whiteSpace=wrap;fillColor=#6C8EBF;strokeColor=#6c8ebf;rounded=1;arcSize=16;spacingLeft=15;spacingTop=5;fontSize=14;html=1;container=0;opacity=30;" parent="hopylSu6kimWQgtTDceS-89" vertex="1">
          <mxGeometry x="20" y="10" width="80" height="30" as="geometry" />
        </mxCell>
        <mxCell id="hopylSu6kimWQgtTDceS-78" value="" style="text;whiteSpace=wrap;fillColor=#D79B00;strokeColor=#d79b00;rounded=1;arcSize=16;spacingLeft=15;spacingTop=5;fontSize=14;textShadow=0;labelBorderColor=none;labelBackgroundColor=none;html=1;container=0;opacity=30;" parent="hopylSu6kimWQgtTDceS-89" vertex="1">
          <mxGeometry x="20" y="50" width="80" height="30" as="geometry" />
        </mxCell>
        <mxCell id="hopylSu6kimWQgtTDceS-79" value="&lt;span style=&quot;font-size: 14px;&quot;&gt;TRANSLATE&lt;/span&gt;" style="rounded=1;fillColor=#0057D8;strokeColor=none;html=1;whiteSpace=wrap;fontColor=#ffffff;align=center;verticalAlign=middle;fontStyle=0;fontSize=12;sketch=0;container=0;" parent="hopylSu6kimWQgtTDceS-89" vertex="1">
          <mxGeometry x="88" y="90" width="98" height="30" as="geometry" />
        </mxCell>
        <mxCell id="hopylSu6kimWQgtTDceS-80" value="" style="text;whiteSpace=wrap;fillColor=#6C8EBF;strokeColor=#6c8ebf;rounded=1;arcSize=16;spacingLeft=15;spacingTop=5;fontSize=14;html=1;container=0;" parent="hopylSu6kimWQgtTDceS-89" vertex="1">
          <mxGeometry x="174" y="10" width="80" height="30" as="geometry" />
        </mxCell>
        <mxCell id="hopylSu6kimWQgtTDceS-81" value="" style="text;whiteSpace=wrap;fillColor=#D79B00;strokeColor=#d79b00;rounded=1;arcSize=16;spacingLeft=15;spacingTop=5;fontSize=14;textShadow=0;labelBorderColor=none;labelBackgroundColor=none;html=1;container=0;" parent="hopylSu6kimWQgtTDceS-89" vertex="1">
          <mxGeometry x="174" y="50" width="80" height="30" as="geometry" />
        </mxCell>
        <mxCell id="hopylSu6kimWQgtTDceS-65" value="" style="rounded=1;whiteSpace=wrap;html=1;fillColor=none;arcSize=7;dashed=1;dashPattern=8 8;" parent="1" vertex="1">
          <mxGeometry x="38" y="581" width="752" height="372" as="geometry" />
        </mxCell>
        <mxCell id="hopylSu6kimWQgtTDceS-31" value="&lt;div&gt;&lt;font style=&quot;font-size: 14px;&quot;&gt;FROM Customers, alias: c&lt;/font&gt;&lt;/div&gt;&lt;div&gt;&lt;font style=&quot;font-size: 14px;&quot;&gt;&lt;br&gt;&lt;/font&gt;&lt;/div&gt;&lt;div&gt;&lt;font style=&quot;font-size: 14px;&quot;&gt;SELECT&amp;nbsp;&amp;nbsp;&lt;/font&gt;&lt;span style=&quot;font-size: 14px; background-color: transparent; color: light-dark(rgb(0, 0, 0), rgb(255, 255, 255));&quot;&gt;{&lt;/span&gt;&lt;/div&gt;&lt;div&gt;&lt;font style=&quot;font-size: 14px;&quot;&gt;&amp;nbsp; &amp;nbsp; AND&lt;/font&gt;&lt;/div&gt;&lt;div&gt;&lt;span style=&quot;font-size: 14px; background-color: transparent; color: light-dark(rgb(0, 0, 0), rgb(255, 255, 255));&quot;&gt;&amp;nbsp; &amp;nbsp;&lt;/span&gt;&lt;span style=&quot;font-size: 14px; background-color: transparent; color: light-dark(rgb(0, 0, 0), rgb(255, 255, 255));&quot;&gt;&amp;nbsp;&lt;/span&gt;&lt;span style=&quot;font-size: 14px; background-color: transparent; color: light-dark(rgb(0, 0, 0), rgb(255, 255, 255));&quot;&gt;&amp;nbsp; &amp;nbsp;&lt;/span&gt;&lt;span style=&quot;font-size: 14px; background-color: transparent; color: light-dark(rgb(0, 0, 0), rgb(255, 255, 255));&quot;&gt;&amp;nbsp;&lt;/span&gt;&lt;span style=&quot;background-color: transparent; color: light-dark(rgb(0, 0, 0), rgb(255, 255, 255)); font-size: 14px;&quot;&gt;c.CreditLimit&amp;nbsp;&lt;/span&gt;&lt;span style=&quot;background-color: transparent; color: light-dark(rgb(0, 0, 0), rgb(255, 255, 255)); font-size: 14px;&quot;&gt;&amp;gt;&amp;nbsp;&lt;/span&gt;&lt;span style=&quot;background-color: transparent; color: light-dark(rgb(0, 0, 0), rgb(255, 255, 255)); font-size: 14px;&quot;&gt;100&lt;/span&gt;&lt;/div&gt;&lt;div&gt;&lt;span style=&quot;font-size: 14px; background-color: transparent; color: light-dark(rgb(0, 0, 0), rgb(255, 255, 255));&quot;&gt;&amp;nbsp; &amp;nbsp;&lt;/span&gt;&lt;span style=&quot;font-size: 14px; background-color: transparent; color: light-dark(rgb(0, 0, 0), rgb(255, 255, 255));&quot;&gt;&amp;nbsp;&lt;/span&gt;&lt;span style=&quot;font-size: 14px; background-color: transparent; color: light-dark(rgb(0, 0, 0), rgb(255, 255, 255));&quot;&gt;&amp;nbsp; &amp;nbsp;&lt;/span&gt;&lt;span style=&quot;font-size: 14px; background-color: transparent; color: light-dark(rgb(0, 0, 0), rgb(255, 255, 255));&quot;&gt;&amp;nbsp;&lt;/span&gt;&lt;span style=&quot;background-color: transparent; color: light-dark(rgb(0, 0, 0), rgb(255, 255, 255)); font-size: 14px;&quot;&gt;c.CreditLimit&amp;nbsp;&lt;/span&gt;&lt;span style=&quot;background-color: transparent; color: light-dark(rgb(0, 0, 0), rgb(255, 255, 255)); font-size: 14px;&quot;&gt;&amp;lt;=&amp;nbsp;&lt;/span&gt;&lt;span style=&quot;background-color: transparent; color: light-dark(rgb(0, 0, 0), rgb(255, 255, 255)); font-size: 14px;&quot;&gt;500&lt;/span&gt;&lt;/div&gt;&lt;div&gt;&lt;span style=&quot;background-color: transparent; color: light-dark(rgb(0, 0, 0), rgb(255, 255, 255)); font-size: 14px;&quot;&gt;}&lt;/span&gt;&lt;/div&gt;&lt;div&gt;&lt;font style=&quot;font-size: 14px;&quot;&gt;&lt;br&gt;&lt;/font&gt;&lt;/div&gt;&lt;div&gt;&lt;font style=&quot;font-size: 14px;&quot;&gt;ORDER_BY c.CustomerName, asc: true&lt;/font&gt;&lt;/div&gt;&lt;div&gt;&lt;font style=&quot;font-size: 14px;&quot;&gt;&lt;br&gt;&lt;/font&gt;&lt;/div&gt;&lt;div&gt;&lt;font style=&quot;font-size: 14px;&quot;&gt;PROJECT c.CustomerID&lt;/font&gt;&lt;/div&gt;" style="rounded=0;whiteSpace=wrap;html=1;fillColor=none;strokeColor=#d79b00;align=left;spacingLeft=15;strokeWidth=3;" parent="1" vertex="1">
          <mxGeometry x="493" y="659.5" width="273" height="213" as="geometry" />
        </mxCell>
        <mxCell id="hopylSu6kimWQgtTDceS-63" value="" style="group" parent="1" vertex="1" connectable="0">
          <mxGeometry x="83" y="596" width="330" height="340" as="geometry" />
        </mxCell>
        <mxCell id="hopylSu6kimWQgtTDceS-22" style="edgeStyle=orthogonalEdgeStyle;rounded=0;orthogonalLoop=1;jettySize=auto;html=1;entryX=0;entryY=0.5;entryDx=0;entryDy=0;exitX=0;exitY=0.5;exitDx=0;exitDy=0;" parent="hopylSu6kimWQgtTDceS-63" source="hopylSu6kimWQgtTDceS-15" target="hopylSu6kimWQgtTDceS-12" edge="1">
          <mxGeometry relative="1" as="geometry" />
        </mxCell>
        <mxCell id="hopylSu6kimWQgtTDceS-23" style="edgeStyle=orthogonalEdgeStyle;rounded=0;orthogonalLoop=1;jettySize=auto;html=1;entryX=0;entryY=0.5;entryDx=0;entryDy=0;exitX=0;exitY=0.5;exitDx=0;exitDy=0;" parent="hopylSu6kimWQgtTDceS-63" source="hopylSu6kimWQgtTDceS-16" target="hopylSu6kimWQgtTDceS-12" edge="1">
          <mxGeometry relative="1" as="geometry" />
        </mxCell>
        <mxCell id="hopylSu6kimWQgtTDceS-24" style="edgeStyle=orthogonalEdgeStyle;rounded=0;orthogonalLoop=1;jettySize=auto;html=1;entryX=0;entryY=0.5;entryDx=0;entryDy=0;exitX=0;exitY=0.5;exitDx=0;exitDy=0;" parent="hopylSu6kimWQgtTDceS-63" source="hopylSu6kimWQgtTDceS-18" target="hopylSu6kimWQgtTDceS-12" edge="1">
          <mxGeometry relative="1" as="geometry" />
        </mxCell>
        <mxCell id="hopylSu6kimWQgtTDceS-26" style="edgeStyle=orthogonalEdgeStyle;rounded=0;orthogonalLoop=1;jettySize=auto;html=1;" parent="hopylSu6kimWQgtTDceS-63" source="hopylSu6kimWQgtTDceS-17" target="hopylSu6kimWQgtTDceS-16" edge="1">
          <mxGeometry relative="1" as="geometry" />
        </mxCell>
        <mxCell id="hopylSu6kimWQgtTDceS-25" style="edgeStyle=orthogonalEdgeStyle;rounded=0;orthogonalLoop=1;jettySize=auto;html=1;" parent="hopylSu6kimWQgtTDceS-63" source="hopylSu6kimWQgtTDceS-14" target="hopylSu6kimWQgtTDceS-15" edge="1">
          <mxGeometry relative="1" as="geometry" />
        </mxCell>
        <mxCell id="hopylSu6kimWQgtTDceS-21" style="edgeStyle=orthogonalEdgeStyle;rounded=0;orthogonalLoop=1;jettySize=auto;html=1;entryX=1;entryY=0.5;entryDx=0;entryDy=0;" parent="hopylSu6kimWQgtTDceS-63" source="hopylSu6kimWQgtTDceS-13" target="hopylSu6kimWQgtTDceS-12" edge="1">
          <mxGeometry relative="1" as="geometry" />
        </mxCell>
        <mxCell id="hopylSu6kimWQgtTDceS-12" value="&lt;p style=&quot;margin:0px;margin-top:4px;text-align:center;&quot;&gt;&lt;b&gt;em&lt;/b&gt;&lt;b style=&quot;background-color: transparent; color: light-dark(rgb(0, 0, 0), rgb(255, 255, 255));&quot;&gt;: EntityMap&lt;/b&gt;&lt;/p&gt;&lt;hr size=&quot;1&quot; style=&quot;border-style:solid;&quot;&gt;&lt;p style=&quot;margin:0px;margin-left:4px;&quot;&gt;table = Customers&lt;/p&gt;" style="verticalAlign=top;align=left;overflow=fill;html=1;whiteSpace=wrap;fillColor=none;strokeColor=#6c8ebf;strokeWidth=3;spacingLeft=1;" parent="hopylSu6kimWQgtTDceS-63" vertex="1">
          <mxGeometry y="10" width="130" height="55" as="geometry" />
        </mxCell>
        <mxCell id="hopylSu6kimWQgtTDceS-15" value="&lt;p style=&quot;margin:0px;margin-top:4px;text-align:center;&quot;&gt;&lt;b&gt;pm1: PropertyMap&lt;/b&gt;&lt;/p&gt;&lt;hr size=&quot;1&quot; style=&quot;border-style:solid;&quot;&gt;&lt;p style=&quot;margin:0px;margin-left:4px;&quot;&gt;nullable = false&lt;/p&gt;&lt;p style=&quot;margin:0px;margin-left:4px;&quot;&gt;primaryKey = true&lt;/p&gt;&lt;p style=&quot;margin:0px;margin-left:4px;&quot;&gt;strategy = Identity&lt;/p&gt;&lt;p style=&quot;margin:0px;margin-left:4px;&quot;&gt;&lt;br&gt;&lt;/p&gt;" style="verticalAlign=top;align=left;overflow=fill;html=1;whiteSpace=wrap;fillColor=none;strokeColor=#6c8ebf;strokeWidth=3;spacingLeft=1;" parent="hopylSu6kimWQgtTDceS-63" vertex="1">
          <mxGeometry y="85" width="130" height="80" as="geometry" />
        </mxCell>
        <mxCell id="hopylSu6kimWQgtTDceS-16" value="&lt;p style=&quot;margin:0px;margin-top:4px;text-align:center;&quot;&gt;&lt;b&gt;pm2: PropertyMap&lt;/b&gt;&lt;/p&gt;&lt;hr size=&quot;1&quot; style=&quot;border-style:solid;&quot;&gt;&lt;p style=&quot;margin:0px;margin-left:4px;&quot;&gt;nullable = false&lt;/p&gt;&lt;p style=&quot;margin:0px;margin-left:4px;&quot;&gt;length = 200&lt;/p&gt;&lt;p style=&quot;margin:0px;margin-left:4px;&quot;&gt;&lt;br&gt;&lt;/p&gt;" style="verticalAlign=top;align=left;overflow=fill;html=1;whiteSpace=wrap;fillColor=none;strokeColor=#6c8ebf;strokeWidth=3;spacingLeft=1;" parent="hopylSu6kimWQgtTDceS-63" vertex="1">
          <mxGeometry y="178" width="130" height="70" as="geometry" />
        </mxCell>
        <mxCell id="hopylSu6kimWQgtTDceS-18" value="&lt;p style=&quot;margin:0px;margin-top:4px;text-align:center;&quot;&gt;&lt;b&gt;pm3: PropertyMap&lt;/b&gt;&lt;/p&gt;&lt;hr size=&quot;1&quot; style=&quot;border-style:solid;&quot;&gt;&lt;p style=&quot;margin:0px;margin-left:4px;&quot;&gt;nullable = true&lt;/p&gt;&lt;p style=&quot;margin:0px;margin-left:4px;&quot;&gt;precision = 18&lt;/p&gt;&lt;p style=&quot;margin:0px;margin-left:4px;&quot;&gt;scale = 2&lt;/p&gt;&lt;p style=&quot;margin:0px;margin-left:4px;&quot;&gt;&lt;br&gt;&lt;/p&gt;" style="verticalAlign=top;align=left;overflow=fill;html=1;whiteSpace=wrap;fillColor=none;strokeColor=#6c8ebf;strokeWidth=3;spacingLeft=1;" parent="hopylSu6kimWQgtTDceS-63" vertex="1">
          <mxGeometry y="260" width="130" height="80" as="geometry" />
        </mxCell>
        <mxCell id="hopylSu6kimWQgtTDceS-27" style="edgeStyle=orthogonalEdgeStyle;rounded=0;orthogonalLoop=1;jettySize=auto;html=1;exitX=0;exitY=0.5;exitDx=0;exitDy=0;" parent="hopylSu6kimWQgtTDceS-63" source="hopylSu6kimWQgtTDceS-20" target="hopylSu6kimWQgtTDceS-18" edge="1">
          <mxGeometry relative="1" as="geometry" />
        </mxCell>
        <mxCell id="hopylSu6kimWQgtTDceS-28" style="edgeStyle=orthogonalEdgeStyle;rounded=0;orthogonalLoop=1;jettySize=auto;html=1;entryX=1;entryY=0.5;entryDx=0;entryDy=0;exitX=1;exitY=0.5;exitDx=0;exitDy=0;" parent="hopylSu6kimWQgtTDceS-63" source="hopylSu6kimWQgtTDceS-14" target="hopylSu6kimWQgtTDceS-13" edge="1">
          <mxGeometry relative="1" as="geometry" />
        </mxCell>
        <mxCell id="hopylSu6kimWQgtTDceS-29" style="edgeStyle=orthogonalEdgeStyle;rounded=0;orthogonalLoop=1;jettySize=auto;html=1;entryX=1;entryY=0.5;entryDx=0;entryDy=0;exitX=1;exitY=0.5;exitDx=0;exitDy=0;" parent="hopylSu6kimWQgtTDceS-63" source="hopylSu6kimWQgtTDceS-17" target="hopylSu6kimWQgtTDceS-13" edge="1">
          <mxGeometry relative="1" as="geometry" />
        </mxCell>
        <mxCell id="hopylSu6kimWQgtTDceS-30" style="edgeStyle=orthogonalEdgeStyle;rounded=0;orthogonalLoop=1;jettySize=auto;html=1;entryX=1;entryY=0.5;entryDx=0;entryDy=0;exitX=1;exitY=0.5;exitDx=0;exitDy=0;" parent="hopylSu6kimWQgtTDceS-63" source="hopylSu6kimWQgtTDceS-20" target="hopylSu6kimWQgtTDceS-13" edge="1">
          <mxGeometry relative="1" as="geometry" />
        </mxCell>
        <mxCell id="hopylSu6kimWQgtTDceS-20" value="&lt;p style=&quot;margin:0px;margin-top:4px;text-align:center;&quot;&gt;&lt;b&gt;p3: Property&lt;/b&gt;&lt;/p&gt;&lt;hr size=&quot;1&quot; style=&quot;border-style:solid;&quot;&gt;&lt;p style=&quot;margin:0px;margin-left:4px;&quot;&gt;name = CreditLimit&lt;/p&gt;&lt;p style=&quot;margin:0px;margin-left:4px;&quot;&gt;type = decimal&lt;/p&gt;&lt;p style=&quot;margin:0px;margin-left:4px;&quot;&gt;nullable = true&lt;/p&gt;&lt;p style=&quot;margin:0px;margin-left:4px;&quot;&gt;&lt;br&gt;&lt;/p&gt;" style="verticalAlign=top;align=left;overflow=fill;html=1;whiteSpace=wrap;fillColor=none;strokeColor=#6c8ebf;strokeWidth=3;spacingLeft=1;" parent="hopylSu6kimWQgtTDceS-63" vertex="1">
          <mxGeometry x="170" y="260" width="160" height="80" as="geometry" />
        </mxCell>
        <mxCell id="hopylSu6kimWQgtTDceS-17" value="&lt;p style=&quot;margin:0px;margin-top:4px;text-align:center;&quot;&gt;&lt;b&gt;p2: Property&lt;/b&gt;&lt;/p&gt;&lt;hr size=&quot;1&quot; style=&quot;border-style:solid;&quot;&gt;&lt;p style=&quot;margin:0px;margin-left:4px;&quot;&gt;name = CustomerName&lt;/p&gt;&lt;p style=&quot;margin:0px;margin-left:4px;&quot;&gt;type = string&lt;/p&gt;&lt;p style=&quot;margin:0px;margin-left:4px;&quot;&gt;otherModifiers = [required]&lt;/p&gt;&lt;p style=&quot;margin:0px;margin-left:4px;&quot;&gt;&lt;br&gt;&lt;/p&gt;" style="verticalAlign=top;align=left;overflow=fill;html=1;whiteSpace=wrap;fillColor=none;strokeColor=#6c8ebf;strokeWidth=3;spacingLeft=1;" parent="hopylSu6kimWQgtTDceS-63" vertex="1">
          <mxGeometry x="170" y="173" width="160" height="80" as="geometry" />
        </mxCell>
        <mxCell id="hopylSu6kimWQgtTDceS-14" value="&lt;p style=&quot;margin:0px;margin-top:4px;text-align:center;&quot;&gt;&lt;b&gt;p1: Property&lt;/b&gt;&lt;/p&gt;&lt;hr size=&quot;1&quot; style=&quot;border-style:solid;&quot;&gt;&lt;p style=&quot;margin:0px;margin-left:4px;&quot;&gt;name = CustomerID&lt;/p&gt;&lt;p style=&quot;margin:0px;margin-left:4px;&quot;&gt;type = int&lt;/p&gt;&lt;p style=&quot;margin:0px;margin-left:4px;&quot;&gt;&lt;br&gt;&lt;/p&gt;" style="verticalAlign=top;align=left;overflow=fill;html=1;whiteSpace=wrap;fillColor=none;strokeColor=#6c8ebf;strokeWidth=3;spacingLeft=1;" parent="hopylSu6kimWQgtTDceS-63" vertex="1">
          <mxGeometry x="170" y="90" width="160" height="70" as="geometry" />
        </mxCell>
        <mxCell id="hopylSu6kimWQgtTDceS-13" value="&lt;p style=&quot;margin:0px;margin-top:4px;text-align:center;&quot;&gt;&lt;b&gt;e: Entity&lt;/b&gt;&lt;/p&gt;&lt;hr size=&quot;1&quot; style=&quot;border-style:solid;&quot;&gt;&lt;p style=&quot;margin:0px;margin-left:4px;&quot;&gt;name = Customer&lt;/p&gt;&lt;p style=&quot;margin:0px;margin-left:4px;&quot;&gt;modifier = internal&lt;/p&gt;" style="verticalAlign=top;align=left;overflow=fill;html=1;whiteSpace=wrap;fillColor=none;strokeColor=#6c8ebf;strokeWidth=3;spacingLeft=1;" parent="hopylSu6kimWQgtTDceS-63" vertex="1">
          <mxGeometry x="170" width="160" height="75" as="geometry" />
        </mxCell>
        <mxCell id="SYts2lZUKtDSeq6iAMCj-1" value="" style="shape=cylinder3;whiteSpace=wrap;html=1;boundedLbl=1;backgroundOutline=1;size=15;" parent="1" vertex="1">
          <mxGeometry x="57" y="376" width="60" height="80" as="geometry" />
        </mxCell>
        <mxCell id="TSUML8YO8040xOLRVqhQ-1" value="" style="shape=flexArrow;endArrow=classic;html=1;rounded=0;fillColor=#f5f5f5;strokeColor=#666666;width=20;" parent="1" edge="1">
          <mxGeometry width="50" height="50" relative="1" as="geometry">
            <mxPoint x="415.71" y="283" as="sourcePoint" />
            <mxPoint x="415.71" y="341" as="targetPoint" />
          </mxGeometry>
        </mxCell>
        <mxCell id="TSUML8YO8040xOLRVqhQ-5" value="" style="shape=flexArrow;endArrow=classic;html=1;rounded=0;fillColor=#f5f5f5;strokeColor=#666666;width=20;" parent="1" edge="1">
          <mxGeometry width="50" height="50" relative="1" as="geometry">
            <mxPoint x="413.71" y="500" as="sourcePoint" />
            <mxPoint x="413.71" y="558" as="targetPoint" />
          </mxGeometry>
        </mxCell>
        <mxCell id="TSUML8YO8040xOLRVqhQ-6" value="" style="shape=flexArrow;endArrow=classic;html=1;rounded=0;fillColor=#f5f5f5;strokeColor=#666666;width=20;" parent="1" edge="1">
          <mxGeometry width="50" height="50" relative="1" as="geometry">
            <mxPoint x="413.71" y="973" as="sourcePoint" />
            <mxPoint x="413.71" y="1031" as="targetPoint" />
          </mxGeometry>
        </mxCell>
        <mxCell id="TSUML8YO8040xOLRVqhQ-8" value="" style="shape=flexArrow;endArrow=classic;html=1;rounded=0;fillColor=#f5f5f5;strokeColor=#666666;width=20;" parent="1" edge="1">
          <mxGeometry width="50" height="50" relative="1" as="geometry">
            <mxPoint x="167.00000000000003" y="415.66" as="sourcePoint" />
            <mxPoint x="226" y="415.66" as="targetPoint" />
          </mxGeometry>
        </mxCell>
        <mxCell id="TSUML8YO8040xOLRVqhQ-10" value="&lt;font&gt;DB METADATA&lt;/font&gt;" style="text;html=1;align=center;verticalAlign=middle;whiteSpace=wrap;rounded=0;fontSize=16;fontStyle=1" parent="1" vertex="1">
          <mxGeometry x="117" y="448" width="158" height="30" as="geometry" />
        </mxCell>
        <mxCell id="TSUML8YO8040xOLRVqhQ-11" value="&lt;div&gt;&lt;font&gt;INTERMEDIATE REPRESENTATION&lt;/font&gt;&lt;/div&gt;&lt;div&gt;&lt;br&gt;&lt;/div&gt;" style="text;html=1;align=left;verticalAlign=middle;whiteSpace=wrap;rounded=0;fontSize=16;fontStyle=1" parent="1" vertex="1">
          <mxGeometry x="446" y="519" width="350" height="30" as="geometry" />
        </mxCell>
        <mxCell id="TSUML8YO8040xOLRVqhQ-9" value="&lt;font&gt;USER INPUT&lt;/font&gt;" style="text;html=1;align=left;verticalAlign=middle;whiteSpace=wrap;rounded=0;fontSize=16;fontStyle=1" parent="1" vertex="1">
          <mxGeometry x="446" y="285" width="158" height="30" as="geometry" />
        </mxCell>
        <mxCell id="TSUML8YO8040xOLRVqhQ-12" value="&lt;div&gt;TARGET ORM&lt;/div&gt;" style="text;html=1;align=left;verticalAlign=middle;whiteSpace=wrap;rounded=0;fontSize=16;fontStyle=1" parent="1" vertex="1">
          <mxGeometry x="446" y="977" width="133" height="30" as="geometry" />
        </mxCell>
      </root>
    </mxGraphModel>
  </diagram>
  <diagram id="0d572FSwU_b4Tovr-7H_" name="orm">
    <mxGraphModel dx="1226" dy="736" grid="0" gridSize="10" guides="1" tooltips="1" connect="1" arrows="1" fold="1" page="1" pageScale="1" pageWidth="827" pageHeight="1169" math="0" shadow="0">
      <root>
        <mxCell id="0" />
        <mxCell id="1" parent="0" />
        <mxCell id="qF0c2YsDVEg9Qkb6klQ0-71" value="" style="childLayout=tableLayout;recursiveResize=0;shadow=0;fillColor=none;autosize=0;align=right;fontSize=12;" vertex="1" parent="1">
          <mxGeometry x="90" y="10" width="450" height="130" as="geometry" />
        </mxCell>
        <mxCell id="qF0c2YsDVEg9Qkb6klQ0-72" value="" style="shape=tableRow;horizontal=0;startSize=0;swimlaneHead=0;swimlaneBody=0;top=0;left=0;bottom=0;right=0;dropTarget=0;collapsible=0;recursiveResize=0;expand=0;fontStyle=0;fillColor=none;strokeColor=inherit;fontSize=12;" vertex="1" parent="qF0c2YsDVEg9Qkb6klQ0-71">
          <mxGeometry width="450" height="50" as="geometry" />
        </mxCell>
        <mxCell id="qF0c2YsDVEg9Qkb6klQ0-73" value="Id" style="connectable=0;recursiveResize=0;strokeColor=#000000;fillColor=#dae8fc;align=center;whiteSpace=wrap;html=1;fontSize=12;" vertex="1" parent="qF0c2YsDVEg9Qkb6klQ0-72">
          <mxGeometry width="58" height="50" as="geometry">
            <mxRectangle width="58" height="50" as="alternateBounds" />
          </mxGeometry>
        </mxCell>
        <mxCell id="qF0c2YsDVEg9Qkb6klQ0-74" value="Name" style="connectable=0;recursiveResize=0;strokeColor=#000000;fillColor=#dae8fc;align=center;whiteSpace=wrap;html=1;fontSize=12;" vertex="1" parent="qF0c2YsDVEg9Qkb6klQ0-72">
          <mxGeometry x="58" width="86" height="50" as="geometry">
            <mxRectangle width="86" height="50" as="alternateBounds" />
          </mxGeometry>
        </mxCell>
        <mxCell id="qF0c2YsDVEg9Qkb6klQ0-75" value="AccountOpenedDate&amp;nbsp;" style="connectable=0;recursiveResize=0;strokeColor=#000000;fillColor=#dae8fc;align=center;whiteSpace=wrap;html=1;fontSize=12;" vertex="1" parent="qF0c2YsDVEg9Qkb6klQ0-72">
          <mxGeometry x="144" width="183" height="50" as="geometry">
            <mxRectangle width="183" height="50" as="alternateBounds" />
          </mxGeometry>
        </mxCell>
        <mxCell id="qF0c2YsDVEg9Qkb6klQ0-121" value="CreditLimit" style="connectable=0;recursiveResize=0;strokeColor=#000000;fillColor=#dae8fc;align=center;whiteSpace=wrap;html=1;fontSize=12;" vertex="1" parent="qF0c2YsDVEg9Qkb6klQ0-72">
          <mxGeometry x="327" width="123" height="50" as="geometry">
            <mxRectangle width="123" height="50" as="alternateBounds" />
          </mxGeometry>
        </mxCell>
        <mxCell id="qF0c2YsDVEg9Qkb6klQ0-76" style="shape=tableRow;horizontal=0;startSize=0;swimlaneHead=0;swimlaneBody=0;top=0;left=0;bottom=0;right=0;dropTarget=0;collapsible=0;recursiveResize=0;expand=0;fontStyle=0;fillColor=none;strokeColor=inherit;fontSize=12;" vertex="1" parent="qF0c2YsDVEg9Qkb6klQ0-71">
          <mxGeometry y="50" width="450" height="42" as="geometry" />
        </mxCell>
        <mxCell id="qF0c2YsDVEg9Qkb6klQ0-77" value="1" style="connectable=0;recursiveResize=0;strokeColor=inherit;fillColor=none;align=center;whiteSpace=wrap;html=1;fontSize=12;" vertex="1" parent="qF0c2YsDVEg9Qkb6klQ0-76">
          <mxGeometry width="58" height="42" as="geometry">
            <mxRectangle width="58" height="42" as="alternateBounds" />
          </mxGeometry>
        </mxCell>
        <mxCell id="qF0c2YsDVEg9Qkb6klQ0-78" value="John Smith" style="connectable=0;recursiveResize=0;strokeColor=inherit;fillColor=none;align=center;whiteSpace=wrap;html=1;fontSize=12;" vertex="1" parent="qF0c2YsDVEg9Qkb6klQ0-76">
          <mxGeometry x="58" width="86" height="42" as="geometry">
            <mxRectangle width="86" height="42" as="alternateBounds" />
          </mxGeometry>
        </mxCell>
        <mxCell id="qF0c2YsDVEg9Qkb6klQ0-79" value="2025-01-01 15:00:00.0000000" style="connectable=0;recursiveResize=0;strokeColor=inherit;fillColor=none;align=center;whiteSpace=wrap;html=1;fontSize=12;" vertex="1" parent="qF0c2YsDVEg9Qkb6klQ0-76">
          <mxGeometry x="144" width="183" height="42" as="geometry">
            <mxRectangle width="183" height="42" as="alternateBounds" />
          </mxGeometry>
        </mxCell>
        <mxCell id="qF0c2YsDVEg9Qkb6klQ0-122" value="500.00" style="connectable=0;recursiveResize=0;strokeColor=inherit;fillColor=none;align=center;whiteSpace=wrap;html=1;fontSize=12;" vertex="1" parent="qF0c2YsDVEg9Qkb6klQ0-76">
          <mxGeometry x="327" width="123" height="42" as="geometry">
            <mxRectangle width="123" height="42" as="alternateBounds" />
          </mxGeometry>
        </mxCell>
        <mxCell id="qF0c2YsDVEg9Qkb6klQ0-80" style="shape=tableRow;horizontal=0;startSize=0;swimlaneHead=0;swimlaneBody=0;top=0;left=0;bottom=0;right=0;dropTarget=0;collapsible=0;recursiveResize=0;expand=0;fontStyle=0;fillColor=none;strokeColor=inherit;fontSize=12;" vertex="1" parent="qF0c2YsDVEg9Qkb6klQ0-71">
          <mxGeometry y="92" width="450" height="38" as="geometry" />
        </mxCell>
        <mxCell id="qF0c2YsDVEg9Qkb6klQ0-81" value="2" style="connectable=0;recursiveResize=0;strokeColor=inherit;fillColor=none;align=center;whiteSpace=wrap;html=1;fontSize=12;" vertex="1" parent="qF0c2YsDVEg9Qkb6klQ0-80">
          <mxGeometry width="58" height="38" as="geometry">
            <mxRectangle width="58" height="38" as="alternateBounds" />
          </mxGeometry>
        </mxCell>
        <mxCell id="qF0c2YsDVEg9Qkb6klQ0-82" value="Alice Doe" style="connectable=0;recursiveResize=0;strokeColor=inherit;fillColor=none;align=center;whiteSpace=wrap;html=1;fontSize=12;" vertex="1" parent="qF0c2YsDVEg9Qkb6klQ0-80">
          <mxGeometry x="58" width="86" height="38" as="geometry">
            <mxRectangle width="86" height="38" as="alternateBounds" />
          </mxGeometry>
        </mxCell>
        <mxCell id="qF0c2YsDVEg9Qkb6klQ0-83" value="2025-04-01 02:00:00.0000000" style="connectable=0;recursiveResize=0;strokeColor=inherit;fillColor=none;align=center;whiteSpace=wrap;html=1;fontSize=12;" vertex="1" parent="qF0c2YsDVEg9Qkb6klQ0-80">
          <mxGeometry x="144" width="183" height="38" as="geometry">
            <mxRectangle width="183" height="38" as="alternateBounds" />
          </mxGeometry>
        </mxCell>
        <mxCell id="qF0c2YsDVEg9Qkb6klQ0-123" value="NULL" style="connectable=0;recursiveResize=0;strokeColor=inherit;fillColor=none;align=center;whiteSpace=wrap;html=1;fontSize=12;" vertex="1" parent="qF0c2YsDVEg9Qkb6klQ0-80">
          <mxGeometry x="327" width="123" height="38" as="geometry">
            <mxRectangle width="123" height="38" as="alternateBounds" />
          </mxGeometry>
        </mxCell>
        <mxCell id="qF0c2YsDVEg9Qkb6klQ0-125" value="&lt;div&gt;&lt;div&gt;new Customer&lt;/div&gt;&lt;div&gt;{&lt;/div&gt;&lt;div&gt;&amp;nbsp; &amp;nbsp;&amp;nbsp;CustomerID = 1,&lt;/div&gt;&lt;div&gt;&amp;nbsp; &amp;nbsp; CustomerName = &quot;John Smith&quot;,&lt;/div&gt;&lt;div&gt;&amp;nbsp; &amp;nbsp; AccountOpenedDate = new DateTime(2025, 1, 1, 15, 0, 0),&lt;/div&gt;&lt;div&gt;&amp;nbsp; &amp;nbsp; CreditLimit = 500m&lt;/div&gt;&lt;div&gt;}&lt;/div&gt;&lt;/div&gt;" style="rounded=0;whiteSpace=wrap;html=1;align=left;spacing=15;fontSize=12;" vertex="1" parent="1">
          <mxGeometry x="132.5" y="452" width="365" height="120" as="geometry" />
        </mxCell>
        <mxCell id="eGGE8ucJN9Nwcx90Be-o-2" value="" style="shape=flexArrow;endArrow=classic;html=1;rounded=0;fillColor=#f5f5f5;strokeColor=#666666;" edge="1" parent="1">
          <mxGeometry width="50" height="50" relative="1" as="geometry">
            <mxPoint x="304.58" y="401" as="sourcePoint" />
            <mxPoint x="304.58" y="441" as="targetPoint" />
          </mxGeometry>
        </mxCell>
        <mxCell id="eGGE8ucJN9Nwcx90Be-o-3" value="" style="shape=flexArrow;endArrow=classic;html=1;rounded=0;fillColor=#f5f5f5;strokeColor=#666666;" edge="1" parent="1">
          <mxGeometry width="50" height="50" relative="1" as="geometry">
            <mxPoint x="304.58" y="148" as="sourcePoint" />
            <mxPoint x="304.58" y="188" as="targetPoint" />
          </mxGeometry>
        </mxCell>
        <mxCell id="eGGE8ucJN9Nwcx90Be-o-4" value="" style="group" vertex="1" connectable="0" parent="1">
          <mxGeometry x="80" y="194" width="470" height="200" as="geometry" />
        </mxCell>
        <mxCell id="qF0c2YsDVEg9Qkb6klQ0-126" value="&lt;b&gt;&lt;font&gt;ORM&lt;/font&gt;&lt;/b&gt;" style="rounded=0;whiteSpace=wrap;html=1;fontSize=20;verticalAlign=top;" vertex="1" parent="eGGE8ucJN9Nwcx90Be-o-4">
          <mxGeometry width="470" height="200" as="geometry" />
        </mxCell>
        <mxCell id="qF0c2YsDVEg9Qkb6klQ0-138" value="🔑 Id: INT&amp;nbsp;→ CustomerId: int" style="rounded=0;whiteSpace=wrap;html=1;align=left;spacingLeft=5;fillColor=#d5e8d4;strokeColor=#82b366;" vertex="1" parent="eGGE8ucJN9Nwcx90Be-o-4">
          <mxGeometry x="30" y="40" width="168" height="30" as="geometry" />
        </mxCell>
        <mxCell id="qF0c2YsDVEg9Qkb6klQ0-139" value="Name: NVARCHAR(200) → CustomerName: string" style="rounded=0;whiteSpace=wrap;html=1;align=left;spacingLeft=5;fillColor=#d5e8d4;strokeColor=#82b366;" vertex="1" parent="eGGE8ucJN9Nwcx90Be-o-4">
          <mxGeometry x="30" y="80" width="290" height="30" as="geometry" />
        </mxCell>
        <mxCell id="qF0c2YsDVEg9Qkb6klQ0-140" value="&lt;span style=&quot;&quot;&gt;AccountOpenedDate&lt;/span&gt;: DATETIME2(7) →&amp;nbsp;&lt;span style=&quot;&quot;&gt;AccountOpenedDate&lt;/span&gt;: DateTime" style="rounded=0;whiteSpace=wrap;html=1;align=left;spacingLeft=5;fillColor=#d5e8d4;strokeColor=#82b366;" vertex="1" parent="eGGE8ucJN9Nwcx90Be-o-4">
          <mxGeometry x="30" y="120" width="404" height="30" as="geometry" />
        </mxCell>
        <mxCell id="qF0c2YsDVEg9Qkb6klQ0-141" value="CreditLimit: DECIMAL(18, 2) → CreditLimit: decimal?" style="rounded=0;whiteSpace=wrap;html=1;align=left;spacingLeft=5;fillColor=#d5e8d4;strokeColor=#82b366;" vertex="1" parent="eGGE8ucJN9Nwcx90Be-o-4">
          <mxGeometry x="30" y="160" width="294" height="30" as="geometry" />
        </mxCell>
      </root>
    </mxGraphModel>
  </diagram>
  <diagram id="kTM-eh1TyHZRATO5I39o" name="abstract">
    <mxGraphModel dx="1389" dy="1235" grid="0" gridSize="10" guides="1" tooltips="1" connect="1" arrows="1" fold="1" page="0" pageScale="1" pageWidth="827" pageHeight="1169" math="0" shadow="0">
      <root>
        <mxCell id="0" />
        <mxCell id="1" parent="0" />
        <mxCell id="mHk7giJYHWcLQy9mGpIO-1" style="edgeStyle=orthogonalEdgeStyle;rounded=0;orthogonalLoop=1;jettySize=auto;html=1;entryX=0.5;entryY=0;entryDx=0;entryDy=0;" parent="1" source="mHk7giJYHWcLQy9mGpIO-3" target="mHk7giJYHWcLQy9mGpIO-8" edge="1">
          <mxGeometry relative="1" as="geometry" />
        </mxCell>
        <mxCell id="mHk7giJYHWcLQy9mGpIO-2" value="has properties" style="edgeLabel;html=1;align=center;verticalAlign=middle;resizable=0;points=[];" parent="mHk7giJYHWcLQy9mGpIO-1" vertex="1" connectable="0">
          <mxGeometry x="0.1129" relative="1" as="geometry">
            <mxPoint as="offset" />
          </mxGeometry>
        </mxCell>
        <mxCell id="mHk7giJYHWcLQy9mGpIO-3" value="Entity" style="swimlane;fontStyle=0;childLayout=stackLayout;horizontal=1;startSize=26;fillColor=none;horizontalStack=0;resizeParent=1;resizeParentMax=0;resizeLast=0;collapsible=1;marginBottom=0;whiteSpace=wrap;html=1;" parent="1" vertex="1">
          <mxGeometry x="446" y="101" width="140" height="78" as="geometry" />
        </mxCell>
        <mxCell id="mHk7giJYHWcLQy9mGpIO-4" value="+ name" style="text;strokeColor=none;fillColor=none;align=left;verticalAlign=top;spacingLeft=4;spacingRight=4;overflow=hidden;rotatable=0;points=[[0,0.5],[1,0.5]];portConstraint=eastwest;whiteSpace=wrap;html=1;" parent="mHk7giJYHWcLQy9mGpIO-3" vertex="1">
          <mxGeometry y="26" width="140" height="26" as="geometry" />
        </mxCell>
        <mxCell id="mHk7giJYHWcLQy9mGpIO-5" value="+ access modifier" style="text;strokeColor=none;fillColor=none;align=left;verticalAlign=top;spacingLeft=4;spacingRight=4;overflow=hidden;rotatable=0;points=[[0,0.5],[1,0.5]];portConstraint=eastwest;whiteSpace=wrap;html=1;" parent="mHk7giJYHWcLQy9mGpIO-3" vertex="1">
          <mxGeometry y="52" width="140" height="26" as="geometry" />
        </mxCell>
        <mxCell id="mHk7giJYHWcLQy9mGpIO-6" style="edgeStyle=orthogonalEdgeStyle;rounded=0;orthogonalLoop=1;jettySize=auto;html=1;" parent="1" source="mHk7giJYHWcLQy9mGpIO-8" target="mHk7giJYHWcLQy9mGpIO-21" edge="1">
          <mxGeometry relative="1" as="geometry" />
        </mxCell>
        <mxCell id="mHk7giJYHWcLQy9mGpIO-7" value="has attribute" style="edgeLabel;html=1;align=center;verticalAlign=middle;resizable=0;points=[];" parent="mHk7giJYHWcLQy9mGpIO-6" vertex="1" connectable="0">
          <mxGeometry x="-0.2162" y="-3" relative="1" as="geometry">
            <mxPoint as="offset" />
          </mxGeometry>
        </mxCell>
        <mxCell id="mHk7giJYHWcLQy9mGpIO-8" value="Property" style="swimlane;fontStyle=0;childLayout=stackLayout;horizontal=1;startSize=26;fillColor=none;horizontalStack=0;resizeParent=1;resizeParentMax=0;resizeLast=0;collapsible=1;marginBottom=0;whiteSpace=wrap;html=1;" parent="1" vertex="1">
          <mxGeometry x="446" y="241" width="140" height="156" as="geometry" />
        </mxCell>
        <mxCell id="mHk7giJYHWcLQy9mGpIO-9" value="+ name" style="text;strokeColor=none;fillColor=none;align=left;verticalAlign=top;spacingLeft=4;spacingRight=4;overflow=hidden;rotatable=0;points=[[0,0.5],[1,0.5]];portConstraint=eastwest;whiteSpace=wrap;html=1;" parent="mHk7giJYHWcLQy9mGpIO-8" vertex="1">
          <mxGeometry y="26" width="140" height="26" as="geometry" />
        </mxCell>
        <mxCell id="mHk7giJYHWcLQy9mGpIO-10" value="+ access modifier" style="text;strokeColor=none;fillColor=none;align=left;verticalAlign=top;spacingLeft=4;spacingRight=4;overflow=hidden;rotatable=0;points=[[0,0.5],[1,0.5]];portConstraint=eastwest;whiteSpace=wrap;html=1;" parent="mHk7giJYHWcLQy9mGpIO-8" vertex="1">
          <mxGeometry y="52" width="140" height="26" as="geometry" />
        </mxCell>
        <mxCell id="mHk7giJYHWcLQy9mGpIO-11" value="+ modifiers[]" style="text;strokeColor=none;fillColor=none;align=left;verticalAlign=top;spacingLeft=4;spacingRight=4;overflow=hidden;rotatable=0;points=[[0,0.5],[1,0.5]];portConstraint=eastwest;whiteSpace=wrap;html=1;" parent="mHk7giJYHWcLQy9mGpIO-8" vertex="1">
          <mxGeometry y="78" width="140" height="26" as="geometry" />
        </mxCell>
        <mxCell id="mHk7giJYHWcLQy9mGpIO-12" value="+ get accessor" style="text;strokeColor=none;fillColor=none;align=left;verticalAlign=top;spacingLeft=4;spacingRight=4;overflow=hidden;rotatable=0;points=[[0,0.5],[1,0.5]];portConstraint=eastwest;whiteSpace=wrap;html=1;" parent="mHk7giJYHWcLQy9mGpIO-8" vertex="1">
          <mxGeometry y="104" width="140" height="26" as="geometry" />
        </mxCell>
        <mxCell id="mHk7giJYHWcLQy9mGpIO-13" value="+ set accessor" style="text;strokeColor=none;fillColor=none;align=left;verticalAlign=top;spacingLeft=4;spacingRight=4;overflow=hidden;rotatable=0;points=[[0,0.5],[1,0.5]];portConstraint=eastwest;whiteSpace=wrap;html=1;" parent="mHk7giJYHWcLQy9mGpIO-8" vertex="1">
          <mxGeometry y="130" width="140" height="26" as="geometry" />
        </mxCell>
        <mxCell id="mHk7giJYHWcLQy9mGpIO-14" value=".NET Type" style="swimlane;fontStyle=0;childLayout=stackLayout;horizontal=1;startSize=26;fillColor=none;horizontalStack=0;resizeParent=1;resizeParentMax=0;resizeLast=0;collapsible=1;marginBottom=0;whiteSpace=wrap;html=1;" parent="1" vertex="1">
          <mxGeometry x="224" y="241" width="140" height="104" as="geometry" />
        </mxCell>
        <mxCell id="mHk7giJYHWcLQy9mGpIO-15" value="+ type identifier&lt;div&gt;&lt;br&gt;&lt;/div&gt;" style="text;strokeColor=none;fillColor=none;align=left;verticalAlign=top;spacingLeft=4;spacingRight=4;overflow=hidden;rotatable=0;points=[[0,0.5],[1,0.5]];portConstraint=eastwest;whiteSpace=wrap;html=1;" parent="mHk7giJYHWcLQy9mGpIO-14" vertex="1">
          <mxGeometry y="26" width="140" height="26" as="geometry" />
        </mxCell>
        <mxCell id="mHk7giJYHWcLQy9mGpIO-16" style="edgeStyle=orthogonalEdgeStyle;rounded=0;orthogonalLoop=1;jettySize=auto;html=1;entryX=0.5;entryY=0;entryDx=0;entryDy=0;" parent="mHk7giJYHWcLQy9mGpIO-14" source="mHk7giJYHWcLQy9mGpIO-17" target="mHk7giJYHWcLQy9mGpIO-14" edge="1">
          <mxGeometry relative="1" as="geometry">
            <Array as="points">
              <mxPoint x="-21" y="65" />
              <mxPoint x="-21" y="-20" />
              <mxPoint x="70" y="-20" />
            </Array>
          </mxGeometry>
        </mxCell>
        <mxCell id="mHk7giJYHWcLQy9mGpIO-17" value="+ generic parameter&lt;div&gt;&lt;br&gt;&lt;/div&gt;" style="text;strokeColor=none;fillColor=none;align=left;verticalAlign=top;spacingLeft=4;spacingRight=4;overflow=hidden;rotatable=0;points=[[0,0.5],[1,0.5]];portConstraint=eastwest;whiteSpace=wrap;html=1;" parent="mHk7giJYHWcLQy9mGpIO-14" vertex="1">
          <mxGeometry y="52" width="140" height="26" as="geometry" />
        </mxCell>
        <mxCell id="mHk7giJYHWcLQy9mGpIO-18" value="+ nullable?&lt;div&gt;&lt;br&gt;&lt;/div&gt;" style="text;strokeColor=none;fillColor=none;align=left;verticalAlign=top;spacingLeft=4;spacingRight=4;overflow=hidden;rotatable=0;points=[[0,0.5],[1,0.5]];portConstraint=eastwest;whiteSpace=wrap;html=1;" parent="mHk7giJYHWcLQy9mGpIO-14" vertex="1">
          <mxGeometry y="78" width="140" height="26" as="geometry" />
        </mxCell>
        <mxCell id="mHk7giJYHWcLQy9mGpIO-19" style="edgeStyle=orthogonalEdgeStyle;rounded=0;orthogonalLoop=1;jettySize=auto;html=1;exitX=-0.009;exitY=0.141;exitDx=0;exitDy=0;entryX=1.013;entryY=0.209;entryDx=0;entryDy=0;exitPerimeter=0;entryPerimeter=0;" parent="1" source="mHk7giJYHWcLQy9mGpIO-8" target="mHk7giJYHWcLQy9mGpIO-14" edge="1">
          <mxGeometry relative="1" as="geometry" />
        </mxCell>
        <mxCell id="mHk7giJYHWcLQy9mGpIO-20" value="has type" style="edgeLabel;html=1;align=center;verticalAlign=middle;resizable=0;points=[];" parent="mHk7giJYHWcLQy9mGpIO-19" vertex="1" connectable="0">
          <mxGeometry x="-0.2242" relative="1" as="geometry">
            <mxPoint as="offset" />
          </mxGeometry>
        </mxCell>
        <mxCell id="mHk7giJYHWcLQy9mGpIO-21" value="Attribute" style="swimlane;fontStyle=0;childLayout=stackLayout;horizontal=1;startSize=26;fillColor=none;horizontalStack=0;resizeParent=1;resizeParentMax=0;resizeLast=0;collapsible=1;marginBottom=0;whiteSpace=wrap;html=1;" parent="1" vertex="1">
          <mxGeometry x="446" y="471" width="140" height="78" as="geometry" />
        </mxCell>
        <mxCell id="mHk7giJYHWcLQy9mGpIO-22" value="+ name" style="text;strokeColor=none;fillColor=none;align=left;verticalAlign=top;spacingLeft=4;spacingRight=4;overflow=hidden;rotatable=0;points=[[0,0.5],[1,0.5]];portConstraint=eastwest;whiteSpace=wrap;html=1;" parent="mHk7giJYHWcLQy9mGpIO-21" vertex="1">
          <mxGeometry y="26" width="140" height="26" as="geometry" />
        </mxCell>
        <mxCell id="mHk7giJYHWcLQy9mGpIO-23" value="+ args[]" style="text;strokeColor=none;fillColor=none;align=left;verticalAlign=top;spacingLeft=4;spacingRight=4;overflow=hidden;rotatable=0;points=[[0,0.5],[1,0.5]];portConstraint=eastwest;whiteSpace=wrap;html=1;" parent="mHk7giJYHWcLQy9mGpIO-21" vertex="1">
          <mxGeometry y="52" width="140" height="26" as="geometry" />
        </mxCell>
        <mxCell id="mHk7giJYHWcLQy9mGpIO-24" style="edgeStyle=orthogonalEdgeStyle;rounded=0;orthogonalLoop=1;jettySize=auto;html=1;entryX=1;entryY=0.5;entryDx=0;entryDy=0;" parent="1" source="mHk7giJYHWcLQy9mGpIO-30" target="mHk7giJYHWcLQy9mGpIO-10" edge="1">
          <mxGeometry relative="1" as="geometry" />
        </mxCell>
        <mxCell id="mHk7giJYHWcLQy9mGpIO-25" value="maps property" style="edgeLabel;html=1;align=center;verticalAlign=middle;resizable=0;points=[];" parent="mHk7giJYHWcLQy9mGpIO-24" vertex="1" connectable="0">
          <mxGeometry x="-0.3102" relative="1" as="geometry">
            <mxPoint as="offset" />
          </mxGeometry>
        </mxCell>
        <mxCell id="mHk7giJYHWcLQy9mGpIO-26" style="edgeStyle=orthogonalEdgeStyle;rounded=0;orthogonalLoop=1;jettySize=auto;html=1;entryX=0;entryY=0.5;entryDx=0;entryDy=0;exitX=1;exitY=0.25;exitDx=0;exitDy=0;" parent="1" source="mHk7giJYHWcLQy9mGpIO-30" target="mHk7giJYHWcLQy9mGpIO-41" edge="1">
          <mxGeometry relative="1" as="geometry" />
        </mxCell>
        <mxCell id="mHk7giJYHWcLQy9mGpIO-27" value="has type" style="edgeLabel;html=1;align=center;verticalAlign=middle;resizable=0;points=[];" parent="mHk7giJYHWcLQy9mGpIO-26" vertex="1" connectable="0">
          <mxGeometry x="-0.677" y="1" relative="1" as="geometry">
            <mxPoint x="18" y="1" as="offset" />
          </mxGeometry>
        </mxCell>
        <mxCell id="mHk7giJYHWcLQy9mGpIO-28" style="edgeStyle=orthogonalEdgeStyle;rounded=0;orthogonalLoop=1;jettySize=auto;html=1;" parent="1" source="mHk7giJYHWcLQy9mGpIO-30" target="mHk7giJYHWcLQy9mGpIO-45" edge="1">
          <mxGeometry relative="1" as="geometry">
            <Array as="points">
              <mxPoint x="724" y="281" />
            </Array>
          </mxGeometry>
        </mxCell>
        <mxCell id="mHk7giJYHWcLQy9mGpIO-29" value="specifies relationship" style="edgeLabel;html=1;align=center;verticalAlign=middle;resizable=0;points=[];" parent="mHk7giJYHWcLQy9mGpIO-28" vertex="1" connectable="0">
          <mxGeometry x="-0.086" y="3" relative="1" as="geometry">
            <mxPoint x="7" y="-4" as="offset" />
          </mxGeometry>
        </mxCell>
        <mxCell id="mHk7giJYHWcLQy9mGpIO-30" value="PropertyMap" style="swimlane;fontStyle=0;childLayout=stackLayout;horizontal=1;startSize=26;fillColor=none;horizontalStack=0;resizeParent=1;resizeParentMax=0;resizeLast=0;collapsible=1;marginBottom=0;whiteSpace=wrap;html=1;" parent="1" vertex="1">
          <mxGeometry x="874" y="280" width="140" height="52" as="geometry" />
        </mxCell>
        <mxCell id="mHk7giJYHWcLQy9mGpIO-31" value="+ column name" style="text;strokeColor=none;fillColor=none;align=left;verticalAlign=top;spacingLeft=4;spacingRight=4;overflow=hidden;rotatable=0;points=[[0,0.5],[1,0.5]];portConstraint=eastwest;whiteSpace=wrap;html=1;" parent="mHk7giJYHWcLQy9mGpIO-30" vertex="1">
          <mxGeometry y="26" width="140" height="26" as="geometry" />
        </mxCell>
        <mxCell id="mHk7giJYHWcLQy9mGpIO-32" style="edgeStyle=orthogonalEdgeStyle;rounded=0;orthogonalLoop=1;jettySize=auto;html=1;entryX=1;entryY=0.5;entryDx=0;entryDy=0;" parent="1" source="mHk7giJYHWcLQy9mGpIO-36" target="mHk7giJYHWcLQy9mGpIO-4" edge="1">
          <mxGeometry relative="1" as="geometry" />
        </mxCell>
        <mxCell id="mHk7giJYHWcLQy9mGpIO-33" value="maps entity" style="edgeLabel;html=1;align=center;verticalAlign=middle;resizable=0;points=[];" parent="mHk7giJYHWcLQy9mGpIO-32" vertex="1" connectable="0">
          <mxGeometry x="0.0451" y="1" relative="1" as="geometry">
            <mxPoint as="offset" />
          </mxGeometry>
        </mxCell>
        <mxCell id="mHk7giJYHWcLQy9mGpIO-34" style="edgeStyle=orthogonalEdgeStyle;rounded=0;orthogonalLoop=1;jettySize=auto;html=1;" parent="1" source="mHk7giJYHWcLQy9mGpIO-36" target="mHk7giJYHWcLQy9mGpIO-30" edge="1">
          <mxGeometry relative="1" as="geometry" />
        </mxCell>
        <mxCell id="mHk7giJYHWcLQy9mGpIO-35" value="has mapped properties" style="edgeLabel;html=1;align=center;verticalAlign=middle;resizable=0;points=[];" parent="mHk7giJYHWcLQy9mGpIO-34" vertex="1" connectable="0">
          <mxGeometry x="0.0957" y="-1" relative="1" as="geometry">
            <mxPoint as="offset" />
          </mxGeometry>
        </mxCell>
        <mxCell id="mHk7giJYHWcLQy9mGpIO-36" value="EntityMap" style="swimlane;fontStyle=0;childLayout=stackLayout;horizontal=1;startSize=26;fillColor=none;horizontalStack=0;resizeParent=1;resizeParentMax=0;resizeLast=0;collapsible=1;marginBottom=0;whiteSpace=wrap;html=1;" parent="1" vertex="1">
          <mxGeometry x="874" y="101" width="140" height="78" as="geometry" />
        </mxCell>
        <mxCell id="mHk7giJYHWcLQy9mGpIO-37" value="+ schema name&lt;div&gt;&lt;br&gt;&lt;/div&gt;" style="text;strokeColor=none;fillColor=none;align=left;verticalAlign=top;spacingLeft=4;spacingRight=4;overflow=hidden;rotatable=0;points=[[0,0.5],[1,0.5]];portConstraint=eastwest;whiteSpace=wrap;html=1;" parent="mHk7giJYHWcLQy9mGpIO-36" vertex="1">
          <mxGeometry y="26" width="140" height="26" as="geometry" />
        </mxCell>
        <mxCell id="mHk7giJYHWcLQy9mGpIO-38" value="+ table name" style="text;strokeColor=none;fillColor=none;align=left;verticalAlign=top;spacingLeft=4;spacingRight=4;overflow=hidden;rotatable=0;points=[[0,0.5],[1,0.5]];portConstraint=eastwest;whiteSpace=wrap;html=1;" parent="mHk7giJYHWcLQy9mGpIO-36" vertex="1">
          <mxGeometry y="52" width="140" height="26" as="geometry" />
        </mxCell>
        <mxCell id="mHk7giJYHWcLQy9mGpIO-39" value="Database Type" style="swimlane;fontStyle=0;childLayout=stackLayout;horizontal=1;startSize=26;fillColor=none;horizontalStack=0;resizeParent=1;resizeParentMax=0;resizeLast=0;collapsible=1;marginBottom=0;whiteSpace=wrap;html=1;" parent="1" vertex="1">
          <mxGeometry x="1085" y="228" width="140" height="104" as="geometry" />
        </mxCell>
        <mxCell id="mHk7giJYHWcLQy9mGpIO-40" value="+ type identifier&lt;div&gt;&lt;br&gt;&lt;/div&gt;" style="text;strokeColor=none;fillColor=none;align=left;verticalAlign=top;spacingLeft=4;spacingRight=4;overflow=hidden;rotatable=0;points=[[0,0.5],[1,0.5]];portConstraint=eastwest;whiteSpace=wrap;html=1;" parent="mHk7giJYHWcLQy9mGpIO-39" vertex="1">
          <mxGeometry y="26" width="140" height="26" as="geometry" />
        </mxCell>
        <mxCell id="mHk7giJYHWcLQy9mGpIO-41" value="+ precision&lt;div&gt;&lt;div&gt;&lt;br&gt;&lt;/div&gt;&lt;/div&gt;" style="text;strokeColor=none;fillColor=none;align=left;verticalAlign=top;spacingLeft=4;spacingRight=4;overflow=hidden;rotatable=0;points=[[0,0.5],[1,0.5]];portConstraint=eastwest;whiteSpace=wrap;html=1;" parent="mHk7giJYHWcLQy9mGpIO-39" vertex="1">
          <mxGeometry y="52" width="140" height="26" as="geometry" />
        </mxCell>
        <mxCell id="mHk7giJYHWcLQy9mGpIO-42" value="+ nullable?&lt;div&gt;&lt;div&gt;&lt;br&gt;&lt;/div&gt;&lt;/div&gt;" style="text;strokeColor=none;fillColor=none;align=left;verticalAlign=top;spacingLeft=4;spacingRight=4;overflow=hidden;rotatable=0;points=[[0,0.5],[1,0.5]];portConstraint=eastwest;whiteSpace=wrap;html=1;" parent="mHk7giJYHWcLQy9mGpIO-39" vertex="1">
          <mxGeometry y="78" width="140" height="26" as="geometry" />
        </mxCell>
        <mxCell id="mHk7giJYHWcLQy9mGpIO-43" style="edgeStyle=orthogonalEdgeStyle;rounded=0;orthogonalLoop=1;jettySize=auto;html=1;entryX=1;entryY=0.5;entryDx=0;entryDy=0;" parent="1" source="mHk7giJYHWcLQy9mGpIO-45" target="mHk7giJYHWcLQy9mGpIO-5" edge="1">
          <mxGeometry relative="1" as="geometry" />
        </mxCell>
        <mxCell id="mHk7giJYHWcLQy9mGpIO-44" value="with" style="edgeLabel;html=1;align=center;verticalAlign=middle;resizable=0;points=[];" parent="mHk7giJYHWcLQy9mGpIO-43" vertex="1" connectable="0">
          <mxGeometry x="0.0228" y="-1" relative="1" as="geometry">
            <mxPoint as="offset" />
          </mxGeometry>
        </mxCell>
        <mxCell id="mHk7giJYHWcLQy9mGpIO-45" value="Relationship" style="swimlane;fontStyle=0;childLayout=stackLayout;horizontal=1;startSize=26;fillColor=none;horizontalStack=0;resizeParent=1;resizeParentMax=0;resizeLast=0;collapsible=1;marginBottom=0;whiteSpace=wrap;html=1;" parent="1" vertex="1">
          <mxGeometry x="654" y="189" width="140" height="52" as="geometry" />
        </mxCell>
        <mxCell id="mHk7giJYHWcLQy9mGpIO-46" value="+ multiplicity&lt;div&gt;&lt;br&gt;&lt;/div&gt;" style="text;strokeColor=none;fillColor=none;align=left;verticalAlign=top;spacingLeft=4;spacingRight=4;overflow=hidden;rotatable=0;points=[[0,0.5],[1,0.5]];portConstraint=eastwest;whiteSpace=wrap;html=1;" parent="mHk7giJYHWcLQy9mGpIO-45" vertex="1">
          <mxGeometry y="26" width="140" height="26" as="geometry" />
        </mxCell>
        <mxCell id="mHk7giJYHWcLQy9mGpIO-47" style="edgeStyle=orthogonalEdgeStyle;rounded=0;orthogonalLoop=1;jettySize=auto;html=1;" parent="1" source="mHk7giJYHWcLQy9mGpIO-53" target="mHk7giJYHWcLQy9mGpIO-55" edge="1">
          <mxGeometry relative="1" as="geometry">
            <Array as="points">
              <mxPoint x="1021" y="621" />
              <mxPoint x="833" y="621" />
            </Array>
          </mxGeometry>
        </mxCell>
        <mxCell id="mHk7giJYHWcLQy9mGpIO-48" style="edgeStyle=orthogonalEdgeStyle;rounded=0;orthogonalLoop=1;jettySize=auto;html=1;" parent="1" source="mHk7giJYHWcLQy9mGpIO-53" target="mHk7giJYHWcLQy9mGpIO-54" edge="1">
          <mxGeometry relative="1" as="geometry" />
        </mxCell>
        <mxCell id="mHk7giJYHWcLQy9mGpIO-49" style="edgeStyle=orthogonalEdgeStyle;rounded=0;orthogonalLoop=1;jettySize=auto;html=1;" parent="1" source="mHk7giJYHWcLQy9mGpIO-53" target="mHk7giJYHWcLQy9mGpIO-62" edge="1">
          <mxGeometry relative="1" as="geometry">
            <Array as="points">
              <mxPoint x="1021" y="621" />
              <mxPoint x="1203" y="621" />
            </Array>
          </mxGeometry>
        </mxCell>
        <mxCell id="mHk7giJYHWcLQy9mGpIO-50" value="has multiple" style="edgeLabel;html=1;align=center;verticalAlign=middle;resizable=0;points=[];" parent="mHk7giJYHWcLQy9mGpIO-49" vertex="1" connectable="0">
          <mxGeometry x="-0.8999" relative="1" as="geometry">
            <mxPoint y="3" as="offset" />
          </mxGeometry>
        </mxCell>
        <mxCell id="mHk7giJYHWcLQy9mGpIO-51" style="edgeStyle=orthogonalEdgeStyle;rounded=0;orthogonalLoop=1;jettySize=auto;html=1;entryX=0.5;entryY=0;entryDx=0;entryDy=0;" parent="1" source="mHk7giJYHWcLQy9mGpIO-53" target="mHk7giJYHWcLQy9mGpIO-67" edge="1">
          <mxGeometry relative="1" as="geometry">
            <Array as="points">
              <mxPoint x="1383" y="581" />
            </Array>
          </mxGeometry>
        </mxCell>
        <mxCell id="mHk7giJYHWcLQy9mGpIO-52" value="has one grouping" style="edgeLabel;html=1;align=center;verticalAlign=middle;resizable=0;points=[];" parent="mHk7giJYHWcLQy9mGpIO-51" vertex="1" connectable="0">
          <mxGeometry x="-0.5731" y="-1" relative="1" as="geometry">
            <mxPoint x="-11" as="offset" />
          </mxGeometry>
        </mxCell>
        <mxCell id="mHk7giJYHWcLQy9mGpIO-53" value="Query" style="swimlane;fontStyle=0;childLayout=stackLayout;horizontal=1;startSize=26;fillColor=none;horizontalStack=0;resizeParent=1;resizeParentMax=0;resizeLast=0;collapsible=1;marginBottom=0;whiteSpace=wrap;html=1;" parent="1" vertex="1">
          <mxGeometry x="951" y="534" width="140" height="52" as="geometry" />
        </mxCell>
        <mxCell id="mHk7giJYHWcLQy9mGpIO-54" value="Selection" style="swimlane;fontStyle=0;childLayout=stackLayout;horizontal=1;startSize=26;fillColor=none;horizontalStack=0;resizeParent=1;resizeParentMax=0;resizeLast=0;collapsible=1;marginBottom=0;whiteSpace=wrap;html=1;" parent="1" vertex="1">
          <mxGeometry x="951" y="641" width="140" height="52" as="geometry" />
        </mxCell>
        <mxCell id="mHk7giJYHWcLQy9mGpIO-55" value="Projection" style="swimlane;fontStyle=0;childLayout=stackLayout;horizontal=1;startSize=26;fillColor=none;horizontalStack=0;resizeParent=1;resizeParentMax=0;resizeLast=0;collapsible=1;marginBottom=0;whiteSpace=wrap;html=1;" parent="1" vertex="1">
          <mxGeometry x="763" y="641" width="140" height="78" as="geometry" />
        </mxCell>
        <mxCell id="mHk7giJYHWcLQy9mGpIO-56" value="+ attribute&lt;div&gt;&lt;br&gt;&lt;/div&gt;" style="text;strokeColor=none;fillColor=none;align=left;verticalAlign=top;spacingLeft=4;spacingRight=4;overflow=hidden;rotatable=0;points=[[0,0.5],[1,0.5]];portConstraint=eastwest;whiteSpace=wrap;html=1;" parent="mHk7giJYHWcLQy9mGpIO-55" vertex="1">
          <mxGeometry y="26" width="140" height="26" as="geometry" />
        </mxCell>
        <mxCell id="mHk7giJYHWcLQy9mGpIO-57" value="+ aggregation function&lt;div&gt;&lt;br&gt;&lt;/div&gt;" style="text;strokeColor=none;fillColor=none;align=left;verticalAlign=top;spacingLeft=4;spacingRight=4;overflow=hidden;rotatable=0;points=[[0,0.5],[1,0.5]];portConstraint=eastwest;whiteSpace=wrap;html=1;" parent="mHk7giJYHWcLQy9mGpIO-55" vertex="1">
          <mxGeometry y="52" width="140" height="26" as="geometry" />
        </mxCell>
        <mxCell id="mHk7giJYHWcLQy9mGpIO-58" value="Condition" style="swimlane;fontStyle=0;childLayout=stackLayout;horizontal=1;startSize=26;fillColor=none;horizontalStack=0;resizeParent=1;resizeParentMax=0;resizeLast=0;collapsible=1;marginBottom=0;whiteSpace=wrap;html=1;" parent="1" vertex="1">
          <mxGeometry x="1091" y="844" width="140" height="104" as="geometry" />
        </mxCell>
        <mxCell id="mHk7giJYHWcLQy9mGpIO-59" value="+ operator&lt;div&gt;&lt;br&gt;&lt;/div&gt;" style="text;strokeColor=none;fillColor=none;align=left;verticalAlign=top;spacingLeft=4;spacingRight=4;overflow=hidden;rotatable=0;points=[[0,0.5],[1,0.5]];portConstraint=eastwest;whiteSpace=wrap;html=1;" parent="mHk7giJYHWcLQy9mGpIO-58" vertex="1">
          <mxGeometry y="26" width="140" height="26" as="geometry" />
        </mxCell>
        <mxCell id="mHk7giJYHWcLQy9mGpIO-60" value="+ right operand&lt;div&gt;&lt;br&gt;&lt;/div&gt;" style="text;strokeColor=none;fillColor=none;align=left;verticalAlign=top;spacingLeft=4;spacingRight=4;overflow=hidden;rotatable=0;points=[[0,0.5],[1,0.5]];portConstraint=eastwest;whiteSpace=wrap;html=1;" parent="mHk7giJYHWcLQy9mGpIO-58" vertex="1">
          <mxGeometry y="52" width="140" height="26" as="geometry" />
        </mxCell>
        <mxCell id="mHk7giJYHWcLQy9mGpIO-61" value="+ left operand&lt;div&gt;&lt;br&gt;&lt;/div&gt;" style="text;strokeColor=none;fillColor=none;align=left;verticalAlign=top;spacingLeft=4;spacingRight=4;overflow=hidden;rotatable=0;points=[[0,0.5],[1,0.5]];portConstraint=eastwest;whiteSpace=wrap;html=1;" parent="mHk7giJYHWcLQy9mGpIO-58" vertex="1">
          <mxGeometry y="78" width="140" height="26" as="geometry" />
        </mxCell>
        <mxCell id="mHk7giJYHWcLQy9mGpIO-62" value="Join" style="swimlane;fontStyle=0;childLayout=stackLayout;horizontal=1;startSize=26;fillColor=none;horizontalStack=0;resizeParent=1;resizeParentMax=0;resizeLast=0;collapsible=1;marginBottom=0;whiteSpace=wrap;html=1;" parent="1" vertex="1">
          <mxGeometry x="1133" y="641" width="140" height="130" as="geometry" />
        </mxCell>
        <mxCell id="mHk7giJYHWcLQy9mGpIO-63" value="+ left table&lt;div&gt;&lt;br&gt;&lt;/div&gt;" style="text;strokeColor=none;fillColor=none;align=left;verticalAlign=top;spacingLeft=4;spacingRight=4;overflow=hidden;rotatable=0;points=[[0,0.5],[1,0.5]];portConstraint=eastwest;whiteSpace=wrap;html=1;" parent="mHk7giJYHWcLQy9mGpIO-62" vertex="1">
          <mxGeometry y="26" width="140" height="26" as="geometry" />
        </mxCell>
        <mxCell id="mHk7giJYHWcLQy9mGpIO-64" value="+ right table&lt;div&gt;&lt;br&gt;&lt;/div&gt;" style="text;strokeColor=none;fillColor=none;align=left;verticalAlign=top;spacingLeft=4;spacingRight=4;overflow=hidden;rotatable=0;points=[[0,0.5],[1,0.5]];portConstraint=eastwest;whiteSpace=wrap;html=1;" parent="mHk7giJYHWcLQy9mGpIO-62" vertex="1">
          <mxGeometry y="52" width="140" height="26" as="geometry" />
        </mxCell>
        <mxCell id="mHk7giJYHWcLQy9mGpIO-65" value="+ join type&lt;div&gt;&lt;br&gt;&lt;/div&gt;" style="text;strokeColor=none;fillColor=none;align=left;verticalAlign=top;spacingLeft=4;spacingRight=4;overflow=hidden;rotatable=0;points=[[0,0.5],[1,0.5]];portConstraint=eastwest;whiteSpace=wrap;html=1;" parent="mHk7giJYHWcLQy9mGpIO-62" vertex="1">
          <mxGeometry y="78" width="140" height="26" as="geometry" />
        </mxCell>
        <mxCell id="mHk7giJYHWcLQy9mGpIO-66" value="+ condition&lt;div&gt;&lt;br&gt;&lt;/div&gt;" style="text;strokeColor=none;fillColor=none;align=left;verticalAlign=top;spacingLeft=4;spacingRight=4;overflow=hidden;rotatable=0;points=[[0,0.5],[1,0.5]];portConstraint=eastwest;whiteSpace=wrap;html=1;" parent="mHk7giJYHWcLQy9mGpIO-62" vertex="1">
          <mxGeometry y="104" width="140" height="26" as="geometry" />
        </mxCell>
        <mxCell id="mHk7giJYHWcLQy9mGpIO-67" value="Grouping" style="swimlane;fontStyle=0;childLayout=stackLayout;horizontal=1;startSize=26;fillColor=none;horizontalStack=0;resizeParent=1;resizeParentMax=0;resizeLast=0;collapsible=1;marginBottom=0;whiteSpace=wrap;html=1;" parent="1" vertex="1">
          <mxGeometry x="1313" y="641" width="140" height="52" as="geometry" />
        </mxCell>
        <mxCell id="mHk7giJYHWcLQy9mGpIO-68" value="+ attribute&lt;div&gt;&lt;br&gt;&lt;/div&gt;" style="text;strokeColor=none;fillColor=none;align=left;verticalAlign=top;spacingLeft=4;spacingRight=4;overflow=hidden;rotatable=0;points=[[0,0.5],[1,0.5]];portConstraint=eastwest;whiteSpace=wrap;html=1;" parent="mHk7giJYHWcLQy9mGpIO-67" vertex="1">
          <mxGeometry y="26" width="140" height="26" as="geometry" />
        </mxCell>
        <mxCell id="mHk7giJYHWcLQy9mGpIO-69" style="edgeStyle=orthogonalEdgeStyle;rounded=0;orthogonalLoop=1;jettySize=auto;html=1;entryX=0.002;entryY=0.127;entryDx=0;entryDy=0;entryPerimeter=0;" parent="1" source="mHk7giJYHWcLQy9mGpIO-54" target="mHk7giJYHWcLQy9mGpIO-58" edge="1">
          <mxGeometry relative="1" as="geometry" />
        </mxCell>
        <mxCell id="mHk7giJYHWcLQy9mGpIO-70" value="condition" style="edgeLabel;html=1;align=center;verticalAlign=middle;resizable=0;points=[];" parent="mHk7giJYHWcLQy9mGpIO-69" vertex="1" connectable="0">
          <mxGeometry x="-0.8014" y="-2" relative="1" as="geometry">
            <mxPoint as="offset" />
          </mxGeometry>
        </mxCell>
        <mxCell id="mHk7giJYHWcLQy9mGpIO-71" style="edgeStyle=orthogonalEdgeStyle;rounded=0;orthogonalLoop=1;jettySize=auto;html=1;entryX=0.998;entryY=0.127;entryDx=0;entryDy=0;entryPerimeter=0;" parent="1" source="mHk7giJYHWcLQy9mGpIO-67" target="mHk7giJYHWcLQy9mGpIO-58" edge="1">
          <mxGeometry relative="1" as="geometry">
            <Array as="points">
              <mxPoint x="1383" y="857" />
            </Array>
          </mxGeometry>
        </mxCell>
        <mxCell id="mHk7giJYHWcLQy9mGpIO-72" value="having" style="edgeLabel;html=1;align=center;verticalAlign=middle;resizable=0;points=[];" parent="mHk7giJYHWcLQy9mGpIO-71" vertex="1" connectable="0">
          <mxGeometry x="-0.889" y="-2" relative="1" as="geometry">
            <mxPoint as="offset" />
          </mxGeometry>
        </mxCell>
        <mxCell id="mHk7giJYHWcLQy9mGpIO-73" value="Operand" style="swimlane;fontStyle=0;childLayout=stackLayout;horizontal=1;startSize=26;fillColor=none;horizontalStack=0;resizeParent=1;resizeParentMax=0;resizeLast=0;collapsible=1;marginBottom=0;whiteSpace=wrap;html=1;" parent="1" vertex="1">
          <mxGeometry x="773" y="844" width="140" height="104" as="geometry" />
        </mxCell>
        <mxCell id="mHk7giJYHWcLQy9mGpIO-74" value="+ query result&lt;div&gt;&lt;br&gt;&lt;/div&gt;" style="text;strokeColor=none;fillColor=none;align=left;verticalAlign=top;spacingLeft=4;spacingRight=4;overflow=hidden;rotatable=0;points=[[0,0.5],[1,0.5]];portConstraint=eastwest;whiteSpace=wrap;html=1;" parent="mHk7giJYHWcLQy9mGpIO-73" vertex="1">
          <mxGeometry y="26" width="140" height="26" as="geometry" />
        </mxCell>
        <mxCell id="mHk7giJYHWcLQy9mGpIO-75" value="+ attribute&lt;div&gt;&lt;br&gt;&lt;/div&gt;" style="text;strokeColor=none;fillColor=none;align=left;verticalAlign=top;spacingLeft=4;spacingRight=4;overflow=hidden;rotatable=0;points=[[0,0.5],[1,0.5]];portConstraint=eastwest;whiteSpace=wrap;html=1;" parent="mHk7giJYHWcLQy9mGpIO-73" vertex="1">
          <mxGeometry y="52" width="140" height="26" as="geometry" />
        </mxCell>
        <mxCell id="mHk7giJYHWcLQy9mGpIO-76" value="+ constant&lt;div&gt;&lt;br&gt;&lt;/div&gt;" style="text;strokeColor=none;fillColor=none;align=left;verticalAlign=top;spacingLeft=4;spacingRight=4;overflow=hidden;rotatable=0;points=[[0,0.5],[1,0.5]];portConstraint=eastwest;whiteSpace=wrap;html=1;" parent="mHk7giJYHWcLQy9mGpIO-73" vertex="1">
          <mxGeometry y="78" width="140" height="26" as="geometry" />
        </mxCell>
        <mxCell id="mHk7giJYHWcLQy9mGpIO-77" style="edgeStyle=orthogonalEdgeStyle;rounded=0;orthogonalLoop=1;jettySize=auto;html=1;entryX=0;entryY=0.5;entryDx=0;entryDy=0;" parent="1" source="mHk7giJYHWcLQy9mGpIO-74" edge="1">
          <mxGeometry relative="1" as="geometry">
            <mxPoint x="951" y="573.0000000000005" as="targetPoint" />
            <Array as="points">
              <mxPoint x="713" y="883" />
              <mxPoint x="713" y="573" />
            </Array>
          </mxGeometry>
        </mxCell>
        <mxCell id="mHk7giJYHWcLQy9mGpIO-78" value="subquery" style="edgeLabel;html=1;align=center;verticalAlign=middle;resizable=0;points=[];" parent="mHk7giJYHWcLQy9mGpIO-77" vertex="1" connectable="0">
          <mxGeometry x="-0.877" relative="1" as="geometry">
            <mxPoint x="8" as="offset" />
          </mxGeometry>
        </mxCell>
        <mxCell id="mHk7giJYHWcLQy9mGpIO-79" style="edgeStyle=orthogonalEdgeStyle;rounded=0;orthogonalLoop=1;jettySize=auto;html=1;entryX=1;entryY=0.5;entryDx=0;entryDy=0;" parent="1" source="mHk7giJYHWcLQy9mGpIO-60" target="mHk7giJYHWcLQy9mGpIO-75" edge="1">
          <mxGeometry relative="1" as="geometry" />
        </mxCell>
        <mxCell id="mHk7giJYHWcLQy9mGpIO-80" style="edgeStyle=orthogonalEdgeStyle;rounded=0;orthogonalLoop=1;jettySize=auto;html=1;entryX=1;entryY=0.5;entryDx=0;entryDy=0;" parent="1" source="mHk7giJYHWcLQy9mGpIO-61" target="mHk7giJYHWcLQy9mGpIO-76" edge="1">
          <mxGeometry relative="1" as="geometry" />
        </mxCell>
        <mxCell id="mHk7giJYHWcLQy9mGpIO-81" value="SetOperation" style="swimlane;fontStyle=0;childLayout=stackLayout;horizontal=1;startSize=26;fillColor=none;horizontalStack=0;resizeParent=1;resizeParentMax=0;resizeLast=0;collapsible=1;marginBottom=0;whiteSpace=wrap;html=1;" parent="1" vertex="1">
          <mxGeometry x="1494" y="641" width="140" height="52" as="geometry" />
        </mxCell>
        <mxCell id="mHk7giJYHWcLQy9mGpIO-82" value="+ operation type&lt;div&gt;&lt;br&gt;&lt;/div&gt;" style="text;strokeColor=none;fillColor=none;align=left;verticalAlign=top;spacingLeft=4;spacingRight=4;overflow=hidden;rotatable=0;points=[[0,0.5],[1,0.5]];portConstraint=eastwest;whiteSpace=wrap;html=1;" parent="mHk7giJYHWcLQy9mGpIO-81" vertex="1">
          <mxGeometry y="26" width="140" height="26" as="geometry" />
        </mxCell>
        <mxCell id="mHk7giJYHWcLQy9mGpIO-83" style="edgeStyle=orthogonalEdgeStyle;rounded=0;orthogonalLoop=1;jettySize=auto;html=1;" parent="1" target="mHk7giJYHWcLQy9mGpIO-81" edge="1">
          <mxGeometry relative="1" as="geometry">
            <mxPoint x="1091" y="561.0476190476193" as="sourcePoint" />
            <Array as="points">
              <mxPoint x="1564" y="561" />
            </Array>
          </mxGeometry>
        </mxCell>
        <mxCell id="mHk7giJYHWcLQy9mGpIO-84" value="in set operation" style="edgeLabel;html=1;align=center;verticalAlign=middle;resizable=0;points=[];" parent="mHk7giJYHWcLQy9mGpIO-83" vertex="1" connectable="0">
          <mxGeometry x="-0.8786" y="-1" relative="1" as="geometry">
            <mxPoint x="31" as="offset" />
          </mxGeometry>
        </mxCell>
        <mxCell id="mHk7giJYHWcLQy9mGpIO-85" style="edgeStyle=orthogonalEdgeStyle;rounded=0;orthogonalLoop=1;jettySize=auto;html=1;entryX=0.5;entryY=0;entryDx=0;entryDy=0;" parent="1" source="mHk7giJYHWcLQy9mGpIO-82" target="mHk7giJYHWcLQy9mGpIO-53" edge="1">
          <mxGeometry relative="1" as="geometry">
            <Array as="points">
              <mxPoint x="1654" y="680" />
              <mxPoint x="1654" y="514" />
              <mxPoint x="1021" y="514" />
            </Array>
          </mxGeometry>
        </mxCell>
        <mxCell id="mHk7giJYHWcLQy9mGpIO-86" value="with" style="edgeLabel;html=1;align=center;verticalAlign=middle;resizable=0;points=[];" parent="mHk7giJYHWcLQy9mGpIO-85" vertex="1" connectable="0">
          <mxGeometry x="-0.914" y="-1" relative="1" as="geometry">
            <mxPoint as="offset" />
          </mxGeometry>
        </mxCell>
        <mxCell id="mHk7giJYHWcLQy9mGpIO-87" style="edgeStyle=orthogonalEdgeStyle;rounded=0;orthogonalLoop=1;jettySize=auto;html=1;entryX=0.005;entryY=0.948;entryDx=0;entryDy=0;entryPerimeter=0;" parent="1" source="mHk7giJYHWcLQy9mGpIO-17" target="mHk7giJYHWcLQy9mGpIO-5" edge="1">
          <mxGeometry relative="1" as="geometry">
            <Array as="points">
              <mxPoint x="203" y="306" />
              <mxPoint x="203" y="178" />
            </Array>
          </mxGeometry>
        </mxCell>
        <mxCell id="mHk7giJYHWcLQy9mGpIO-88" value="of type" style="edgeLabel;html=1;align=center;verticalAlign=middle;resizable=0;points=[];" parent="mHk7giJYHWcLQy9mGpIO-87" vertex="1" connectable="0">
          <mxGeometry x="-0.8709" y="1" relative="1" as="geometry">
            <mxPoint x="1" y="-35" as="offset" />
          </mxGeometry>
        </mxCell>
        <mxCell id="mHk7giJYHWcLQy9mGpIO-89" style="edgeStyle=orthogonalEdgeStyle;rounded=0;orthogonalLoop=1;jettySize=auto;html=1;fillColor=#f5f5f5;strokeColor=#666666;dashed=1;dashPattern=8 8;" parent="1" source="mHk7giJYHWcLQy9mGpIO-75" target="mHk7giJYHWcLQy9mGpIO-8" edge="1">
          <mxGeometry relative="1" as="geometry">
            <Array as="points">
              <mxPoint x="633" y="909" />
              <mxPoint x="633" y="376" />
            </Array>
          </mxGeometry>
        </mxCell>
        <mxCell id="mHk7giJYHWcLQy9mGpIO-90" style="edgeStyle=orthogonalEdgeStyle;rounded=0;orthogonalLoop=1;jettySize=auto;html=1;fillColor=#f5f5f5;strokeColor=#666666;dashed=1;dashPattern=8 8;" parent="1" source="mHk7giJYHWcLQy9mGpIO-56" edge="1">
          <mxGeometry relative="1" as="geometry">
            <mxPoint x="586" y="377" as="targetPoint" />
            <Array as="points">
              <mxPoint x="633" y="680" />
              <mxPoint x="633" y="377" />
            </Array>
          </mxGeometry>
        </mxCell>
        <mxCell id="mHk7giJYHWcLQy9mGpIO-91" style="edgeStyle=orthogonalEdgeStyle;rounded=0;orthogonalLoop=1;jettySize=auto;html=1;exitX=0;exitY=0.5;exitDx=0;exitDy=0;entryX=1.026;entryY=0.208;entryDx=0;entryDy=0;entryPerimeter=0;fillColor=#f5f5f5;strokeColor=#666666;dashed=1;dashPattern=8 8;" parent="1" source="mHk7giJYHWcLQy9mGpIO-68" target="mHk7giJYHWcLQy9mGpIO-13" edge="1">
          <mxGeometry relative="1" as="geometry">
            <Array as="points">
              <mxPoint x="1296" y="680" />
              <mxPoint x="1296" y="376" />
            </Array>
          </mxGeometry>
        </mxCell>
        <mxCell id="mHk7giJYHWcLQy9mGpIO-92" style="edgeStyle=orthogonalEdgeStyle;rounded=0;orthogonalLoop=1;jettySize=auto;html=1;exitX=0;exitY=0.5;exitDx=0;exitDy=0;" parent="1" source="mHk7giJYHWcLQy9mGpIO-4" target="mHk7giJYHWcLQy9mGpIO-21" edge="1">
          <mxGeometry relative="1" as="geometry">
            <Array as="points">
              <mxPoint x="177" y="140" />
              <mxPoint x="177" y="510" />
            </Array>
          </mxGeometry>
        </mxCell>
        <mxCell id="mHk7giJYHWcLQy9mGpIO-93" value="has attribute" style="edgeLabel;html=1;align=center;verticalAlign=middle;resizable=0;points=[];" parent="mHk7giJYHWcLQy9mGpIO-92" vertex="1" connectable="0">
          <mxGeometry x="-0.8704" y="3" relative="1" as="geometry">
            <mxPoint as="offset" />
          </mxGeometry>
        </mxCell>
        <mxCell id="mHk7giJYHWcLQy9mGpIO-94" value="Abstract representation" style="text;strokeColor=none;fillColor=none;html=1;fontSize=24;fontStyle=1;verticalAlign=middle;align=center;" parent="1" vertex="1">
          <mxGeometry x="107" y="50" width="100" height="40" as="geometry" />
        </mxCell>
        <mxCell id="ey-cG3cLW9nHyLrmfL4b-57" style="edgeStyle=orthogonalEdgeStyle;rounded=0;orthogonalLoop=1;jettySize=auto;html=1;" edge="1" parent="1" source="ey-cG3cLW9nHyLrmfL4b-61" target="ey-cG3cLW9nHyLrmfL4b-72">
          <mxGeometry relative="1" as="geometry" />
        </mxCell>
        <mxCell id="ey-cG3cLW9nHyLrmfL4b-58" value="defines" style="edgeLabel;html=1;align=center;verticalAlign=middle;resizable=0;points=[];labelBackgroundColor=none;" vertex="1" connectable="0" parent="ey-cG3cLW9nHyLrmfL4b-57">
          <mxGeometry x="-0.1837" y="1" relative="1" as="geometry">
            <mxPoint x="21" y="1" as="offset" />
          </mxGeometry>
        </mxCell>
        <mxCell id="ey-cG3cLW9nHyLrmfL4b-59" value="1" style="edgeLabel;html=1;align=center;verticalAlign=middle;resizable=0;points=[];" vertex="1" connectable="0" parent="ey-cG3cLW9nHyLrmfL4b-57">
          <mxGeometry x="-0.7616" y="1" relative="1" as="geometry">
            <mxPoint x="-13" y="3" as="offset" />
          </mxGeometry>
        </mxCell>
        <mxCell id="ey-cG3cLW9nHyLrmfL4b-60" value="1..*" style="edgeLabel;html=1;align=center;verticalAlign=middle;resizable=0;points=[];" vertex="1" connectable="0" parent="ey-cG3cLW9nHyLrmfL4b-57">
          <mxGeometry x="0.4629" y="-1" relative="1" as="geometry">
            <mxPoint x="-15" y="1" as="offset" />
          </mxGeometry>
        </mxCell>
        <mxCell id="ey-cG3cLW9nHyLrmfL4b-61" value="EntityMap" style="swimlane;fontStyle=0;childLayout=stackLayout;horizontal=1;startSize=26;fillColor=#d5e8d4;horizontalStack=0;resizeParent=1;resizeParentMax=0;resizeLast=0;collapsible=1;marginBottom=0;whiteSpace=wrap;html=1;strokeColor=#82b366;" vertex="1" parent="1">
          <mxGeometry x="1584" y="-26" width="140" height="78" as="geometry">
            <mxRectangle x="1750" y="80" width="90" height="30" as="alternateBounds" />
          </mxGeometry>
        </mxCell>
        <mxCell id="ey-cG3cLW9nHyLrmfL4b-62" value="+ schemaName&lt;div&gt;&lt;br&gt;&lt;/div&gt;" style="text;strokeColor=none;fillColor=none;align=left;verticalAlign=top;spacingLeft=4;spacingRight=4;overflow=hidden;rotatable=0;points=[[0,0.5],[1,0.5]];portConstraint=eastwest;whiteSpace=wrap;html=1;" vertex="1" parent="ey-cG3cLW9nHyLrmfL4b-61">
          <mxGeometry y="26" width="140" height="26" as="geometry" />
        </mxCell>
        <mxCell id="ey-cG3cLW9nHyLrmfL4b-63" value="+ tableName" style="text;strokeColor=none;fillColor=none;align=left;verticalAlign=top;spacingLeft=4;spacingRight=4;overflow=hidden;rotatable=0;points=[[0,0.5],[1,0.5]];portConstraint=eastwest;whiteSpace=wrap;html=1;" vertex="1" parent="ey-cG3cLW9nHyLrmfL4b-61">
          <mxGeometry y="52" width="140" height="26" as="geometry" />
        </mxCell>
        <mxCell id="ey-cG3cLW9nHyLrmfL4b-64" style="edgeStyle=orthogonalEdgeStyle;rounded=0;orthogonalLoop=1;jettySize=auto;html=1;entryX=0.5;entryY=0;entryDx=0;entryDy=0;" edge="1" parent="1" source="ey-cG3cLW9nHyLrmfL4b-72" target="ey-cG3cLW9nHyLrmfL4b-92">
          <mxGeometry relative="1" as="geometry" />
        </mxCell>
        <mxCell id="ey-cG3cLW9nHyLrmfL4b-65" value="has" style="edgeLabel;html=1;align=center;verticalAlign=middle;resizable=0;points=[];labelBackgroundColor=none;" vertex="1" connectable="0" parent="ey-cG3cLW9nHyLrmfL4b-64">
          <mxGeometry x="-0.2114" y="-2" relative="1" as="geometry">
            <mxPoint x="17" y="-5" as="offset" />
          </mxGeometry>
        </mxCell>
        <mxCell id="ey-cG3cLW9nHyLrmfL4b-66" value="1" style="edgeLabel;html=1;align=center;verticalAlign=middle;resizable=0;points=[];" vertex="1" connectable="0" parent="ey-cG3cLW9nHyLrmfL4b-64">
          <mxGeometry x="-0.8164" relative="1" as="geometry">
            <mxPoint x="-11" y="2" as="offset" />
          </mxGeometry>
        </mxCell>
        <mxCell id="ey-cG3cLW9nHyLrmfL4b-67" value="0..*" style="edgeLabel;html=1;align=center;verticalAlign=middle;resizable=0;points=[];" vertex="1" connectable="0" parent="ey-cG3cLW9nHyLrmfL4b-64">
          <mxGeometry x="0.7198" y="1" relative="1" as="geometry">
            <mxPoint x="-17" y="-2" as="offset" />
          </mxGeometry>
        </mxCell>
        <mxCell id="ey-cG3cLW9nHyLrmfL4b-68" style="edgeStyle=orthogonalEdgeStyle;rounded=0;orthogonalLoop=1;jettySize=auto;html=1;" edge="1" parent="1" source="ey-cG3cLW9nHyLrmfL4b-72" target="ey-cG3cLW9nHyLrmfL4b-89">
          <mxGeometry relative="1" as="geometry" />
        </mxCell>
        <mxCell id="ey-cG3cLW9nHyLrmfL4b-69" value="maps" style="edgeLabel;html=1;align=center;verticalAlign=middle;resizable=0;points=[];labelBackgroundColor=none;" vertex="1" connectable="0" parent="ey-cG3cLW9nHyLrmfL4b-68">
          <mxGeometry x="-0.2262" y="-2" relative="1" as="geometry">
            <mxPoint x="7" y="6" as="offset" />
          </mxGeometry>
        </mxCell>
        <mxCell id="ey-cG3cLW9nHyLrmfL4b-70" value="1" style="edgeLabel;html=1;align=center;verticalAlign=middle;resizable=0;points=[];" vertex="1" connectable="0" parent="ey-cG3cLW9nHyLrmfL4b-68">
          <mxGeometry x="-0.7117" y="1" relative="1" as="geometry">
            <mxPoint x="-5" y="-7" as="offset" />
          </mxGeometry>
        </mxCell>
        <mxCell id="ey-cG3cLW9nHyLrmfL4b-71" value="1" style="edgeLabel;html=1;align=center;verticalAlign=middle;resizable=0;points=[];" vertex="1" connectable="0" parent="ey-cG3cLW9nHyLrmfL4b-68">
          <mxGeometry x="0.6383" y="1" relative="1" as="geometry">
            <mxPoint x="-2" y="-7" as="offset" />
          </mxGeometry>
        </mxCell>
        <mxCell id="ey-cG3cLW9nHyLrmfL4b-72" value="PropertyMap" style="swimlane;fontStyle=0;childLayout=stackLayout;horizontal=1;startSize=26;fillColor=#d5e8d4;horizontalStack=0;resizeParent=1;resizeParentMax=0;resizeLast=0;collapsible=1;marginBottom=0;whiteSpace=wrap;html=1;strokeColor=#82b366;" vertex="1" parent="1">
          <mxGeometry x="1584" y="101" width="140" height="104" as="geometry" />
        </mxCell>
        <mxCell id="ey-cG3cLW9nHyLrmfL4b-73" value="+ columnName&lt;div&gt;&lt;br&gt;&lt;/div&gt;" style="text;strokeColor=none;fillColor=none;align=left;verticalAlign=top;spacingLeft=4;spacingRight=4;overflow=hidden;rotatable=0;points=[[0,0.5],[1,0.5]];portConstraint=eastwest;whiteSpace=wrap;html=1;" vertex="1" parent="ey-cG3cLW9nHyLrmfL4b-72">
          <mxGeometry y="26" width="140" height="26" as="geometry" />
        </mxCell>
        <mxCell id="ey-cG3cLW9nHyLrmfL4b-74" value="+ databaseType&lt;div&gt;&lt;br&gt;&lt;/div&gt;" style="text;strokeColor=none;fillColor=none;align=left;verticalAlign=top;spacingLeft=4;spacingRight=4;overflow=hidden;rotatable=0;points=[[0,0.5],[1,0.5]];portConstraint=eastwest;whiteSpace=wrap;html=1;" vertex="1" parent="ey-cG3cLW9nHyLrmfL4b-72">
          <mxGeometry y="52" width="140" height="26" as="geometry" />
        </mxCell>
        <mxCell id="ey-cG3cLW9nHyLrmfL4b-75" value="+ isNullable" style="text;strokeColor=none;fillColor=none;align=left;verticalAlign=top;spacingLeft=4;spacingRight=4;overflow=hidden;rotatable=0;points=[[0,0.5],[1,0.5]];portConstraint=eastwest;whiteSpace=wrap;html=1;" vertex="1" parent="ey-cG3cLW9nHyLrmfL4b-72">
          <mxGeometry y="78" width="140" height="26" as="geometry" />
        </mxCell>
        <mxCell id="ey-cG3cLW9nHyLrmfL4b-76" style="edgeStyle=orthogonalEdgeStyle;rounded=0;orthogonalLoop=1;jettySize=auto;html=1;entryX=0.5;entryY=0;entryDx=0;entryDy=0;" edge="1" parent="1" source="ey-cG3cLW9nHyLrmfL4b-80" target="ey-cG3cLW9nHyLrmfL4b-88">
          <mxGeometry relative="1" as="geometry" />
        </mxCell>
        <mxCell id="ey-cG3cLW9nHyLrmfL4b-77" value="declares" style="edgeLabel;html=1;align=center;verticalAlign=middle;resizable=0;points=[];labelBackgroundColor=none;" vertex="1" connectable="0" parent="ey-cG3cLW9nHyLrmfL4b-76">
          <mxGeometry x="-0.3687" y="1" relative="1" as="geometry">
            <mxPoint x="27" y="2" as="offset" />
          </mxGeometry>
        </mxCell>
        <mxCell id="ey-cG3cLW9nHyLrmfL4b-78" value="1" style="edgeLabel;html=1;align=center;verticalAlign=middle;resizable=0;points=[];" vertex="1" connectable="0" parent="ey-cG3cLW9nHyLrmfL4b-76">
          <mxGeometry x="-0.7491" y="2" relative="1" as="geometry">
            <mxPoint x="-13" y="2" as="offset" />
          </mxGeometry>
        </mxCell>
        <mxCell id="ey-cG3cLW9nHyLrmfL4b-79" value="1..*" style="edgeLabel;html=1;align=center;verticalAlign=middle;resizable=0;points=[];" vertex="1" connectable="0" parent="ey-cG3cLW9nHyLrmfL4b-76">
          <mxGeometry x="0.5418" y="-2" relative="1" as="geometry">
            <mxPoint x="-15" as="offset" />
          </mxGeometry>
        </mxCell>
        <mxCell id="ey-cG3cLW9nHyLrmfL4b-80" value="Entity" style="swimlane;fontStyle=0;childLayout=stackLayout;horizontal=1;startSize=26;fillColor=#dae8fc;horizontalStack=0;resizeParent=1;resizeParentMax=0;resizeLast=0;collapsible=1;marginBottom=0;whiteSpace=wrap;html=1;strokeColor=#6c8ebf;" vertex="1" parent="1">
          <mxGeometry x="1804" y="-26" width="140" height="104" as="geometry" />
        </mxCell>
        <mxCell id="ey-cG3cLW9nHyLrmfL4b-81" value="+ name" style="text;strokeColor=none;fillColor=none;align=left;verticalAlign=top;spacingLeft=4;spacingRight=4;overflow=hidden;rotatable=0;points=[[0,0.5],[1,0.5]];portConstraint=eastwest;whiteSpace=wrap;html=1;" vertex="1" parent="ey-cG3cLW9nHyLrmfL4b-80">
          <mxGeometry y="26" width="140" height="26" as="geometry" />
        </mxCell>
        <mxCell id="ey-cG3cLW9nHyLrmfL4b-82" value="+ accessModifier" style="text;strokeColor=none;fillColor=none;align=left;verticalAlign=top;spacingLeft=4;spacingRight=4;overflow=hidden;rotatable=0;points=[[0,0.5],[1,0.5]];portConstraint=eastwest;whiteSpace=wrap;html=1;" vertex="1" parent="ey-cG3cLW9nHyLrmfL4b-80">
          <mxGeometry y="52" width="140" height="26" as="geometry" />
        </mxCell>
        <mxCell id="ey-cG3cLW9nHyLrmfL4b-83" value="+ namespace" style="text;strokeColor=none;fillColor=none;align=left;verticalAlign=top;spacingLeft=4;spacingRight=4;overflow=hidden;rotatable=0;points=[[0,0.5],[1,0.5]];portConstraint=eastwest;whiteSpace=wrap;html=1;" vertex="1" parent="ey-cG3cLW9nHyLrmfL4b-80">
          <mxGeometry y="78" width="140" height="26" as="geometry" />
        </mxCell>
        <mxCell id="ey-cG3cLW9nHyLrmfL4b-84" style="edgeStyle=orthogonalEdgeStyle;rounded=0;orthogonalLoop=1;jettySize=auto;html=1;" edge="1" parent="1" source="ey-cG3cLW9nHyLrmfL4b-88" target="ey-cG3cLW9nHyLrmfL4b-101">
          <mxGeometry relative="1" as="geometry" />
        </mxCell>
        <mxCell id="ey-cG3cLW9nHyLrmfL4b-85" value="typed as" style="edgeLabel;html=1;align=center;verticalAlign=middle;resizable=0;points=[];labelBackgroundColor=none;" vertex="1" connectable="0" parent="ey-cG3cLW9nHyLrmfL4b-84">
          <mxGeometry x="-0.3247" relative="1" as="geometry">
            <mxPoint x="27" as="offset" />
          </mxGeometry>
        </mxCell>
        <mxCell id="ey-cG3cLW9nHyLrmfL4b-86" value="1" style="edgeLabel;html=1;align=center;verticalAlign=middle;resizable=0;points=[];" vertex="1" connectable="0" parent="ey-cG3cLW9nHyLrmfL4b-84">
          <mxGeometry x="-0.7485" y="-1" relative="1" as="geometry">
            <mxPoint x="-9" y="1" as="offset" />
          </mxGeometry>
        </mxCell>
        <mxCell id="ey-cG3cLW9nHyLrmfL4b-87" value="1" style="edgeLabel;html=1;align=center;verticalAlign=middle;resizable=0;points=[];" vertex="1" connectable="0" parent="ey-cG3cLW9nHyLrmfL4b-84">
          <mxGeometry x="0.3576" y="-1" relative="1" as="geometry">
            <mxPoint x="-10" y="5" as="offset" />
          </mxGeometry>
        </mxCell>
        <mxCell id="ey-cG3cLW9nHyLrmfL4b-88" value="Property" style="swimlane;fontStyle=0;childLayout=stackLayout;horizontal=1;startSize=26;fillColor=#dae8fc;horizontalStack=0;resizeParent=1;resizeParentMax=0;resizeLast=0;collapsible=1;marginBottom=0;whiteSpace=wrap;html=1;strokeColor=#6c8ebf;" vertex="1" parent="1">
          <mxGeometry x="1804" y="114" width="140" height="104" as="geometry" />
        </mxCell>
        <mxCell id="ey-cG3cLW9nHyLrmfL4b-89" value="+ name" style="text;strokeColor=none;fillColor=none;align=left;verticalAlign=top;spacingLeft=4;spacingRight=4;overflow=hidden;rotatable=0;points=[[0,0.5],[1,0.5]];portConstraint=eastwest;whiteSpace=wrap;html=1;" vertex="1" parent="ey-cG3cLW9nHyLrmfL4b-88">
          <mxGeometry y="26" width="140" height="26" as="geometry" />
        </mxCell>
        <mxCell id="ey-cG3cLW9nHyLrmfL4b-90" value="+ accessModifier" style="text;strokeColor=none;fillColor=none;align=left;verticalAlign=top;spacingLeft=4;spacingRight=4;overflow=hidden;rotatable=0;points=[[0,0.5],[1,0.5]];portConstraint=eastwest;whiteSpace=wrap;html=1;" vertex="1" parent="ey-cG3cLW9nHyLrmfL4b-88">
          <mxGeometry y="52" width="140" height="26" as="geometry" />
        </mxCell>
        <mxCell id="ey-cG3cLW9nHyLrmfL4b-91" value="+ modifiers[]" style="text;strokeColor=none;fillColor=none;align=left;verticalAlign=top;spacingLeft=4;spacingRight=4;overflow=hidden;rotatable=0;points=[[0,0.5],[1,0.5]];portConstraint=eastwest;whiteSpace=wrap;html=1;" vertex="1" parent="ey-cG3cLW9nHyLrmfL4b-88">
          <mxGeometry y="78" width="140" height="26" as="geometry" />
        </mxCell>
        <mxCell id="ey-cG3cLW9nHyLrmfL4b-92" value="DatabaseProperty" style="swimlane;fontStyle=0;childLayout=stackLayout;horizontal=1;startSize=26;fillColor=#d5e8d4;horizontalStack=0;resizeParent=1;resizeParentMax=0;resizeLast=0;collapsible=1;marginBottom=0;whiteSpace=wrap;html=1;strokeColor=#82b366;" vertex="1" parent="1">
          <mxGeometry x="1584" y="239" width="140" height="78" as="geometry" />
        </mxCell>
        <mxCell id="ey-cG3cLW9nHyLrmfL4b-93" value="+ key&lt;div&gt;&lt;br&gt;&lt;/div&gt;" style="text;strokeColor=none;fillColor=none;align=left;verticalAlign=top;spacingLeft=4;spacingRight=4;overflow=hidden;rotatable=0;points=[[0,0.5],[1,0.5]];portConstraint=eastwest;whiteSpace=wrap;html=1;" vertex="1" parent="ey-cG3cLW9nHyLrmfL4b-92">
          <mxGeometry y="26" width="140" height="26" as="geometry" />
        </mxCell>
        <mxCell id="ey-cG3cLW9nHyLrmfL4b-94" value="+ value&lt;div&gt;&lt;br&gt;&lt;/div&gt;" style="text;strokeColor=none;fillColor=none;align=left;verticalAlign=top;spacingLeft=4;spacingRight=4;overflow=hidden;rotatable=0;points=[[0,0.5],[1,0.5]];portConstraint=eastwest;whiteSpace=wrap;html=1;" vertex="1" parent="ey-cG3cLW9nHyLrmfL4b-92">
          <mxGeometry y="52" width="140" height="26" as="geometry" />
        </mxCell>
        <mxCell id="ey-cG3cLW9nHyLrmfL4b-95" style="edgeStyle=orthogonalEdgeStyle;rounded=0;orthogonalLoop=1;jettySize=auto;html=1;entryX=0;entryY=0.5;entryDx=0;entryDy=0;exitX=0.5;exitY=0;exitDx=0;exitDy=0;" edge="1" parent="1" source="ey-cG3cLW9nHyLrmfL4b-99" target="ey-cG3cLW9nHyLrmfL4b-62">
          <mxGeometry relative="1" as="geometry" />
        </mxCell>
        <mxCell id="ey-cG3cLW9nHyLrmfL4b-96" value="with" style="edgeLabel;html=1;align=center;verticalAlign=middle;resizable=0;points=[];labelBackgroundColor=none;" vertex="1" connectable="0" parent="ey-cG3cLW9nHyLrmfL4b-95">
          <mxGeometry x="-0.8432" y="-1" relative="1" as="geometry">
            <mxPoint x="38" y="-25" as="offset" />
          </mxGeometry>
        </mxCell>
        <mxCell id="ey-cG3cLW9nHyLrmfL4b-97" value="1" style="edgeLabel;html=1;align=center;verticalAlign=middle;resizable=0;points=[];" vertex="1" connectable="0" parent="ey-cG3cLW9nHyLrmfL4b-95">
          <mxGeometry x="0.8063" relative="1" as="geometry">
            <mxPoint x="-4" y="-11" as="offset" />
          </mxGeometry>
        </mxCell>
        <mxCell id="ey-cG3cLW9nHyLrmfL4b-98" value="1" style="edgeLabel;html=1;align=center;verticalAlign=middle;resizable=0;points=[];" vertex="1" connectable="0" parent="ey-cG3cLW9nHyLrmfL4b-95">
          <mxGeometry x="-0.8768" y="1" relative="1" as="geometry">
            <mxPoint x="-7" y="-1" as="offset" />
          </mxGeometry>
        </mxCell>
        <mxCell id="ey-cG3cLW9nHyLrmfL4b-99" value="Relationship" style="swimlane;fontStyle=0;childLayout=stackLayout;horizontal=1;startSize=26;fillColor=#d5e8d4;horizontalStack=0;resizeParent=1;resizeParentMax=0;resizeLast=0;collapsible=1;marginBottom=0;whiteSpace=wrap;html=1;strokeColor=#82b366;" vertex="1" parent="1">
          <mxGeometry x="1424" y="57" width="140" height="52" as="geometry" />
        </mxCell>
        <mxCell id="ey-cG3cLW9nHyLrmfL4b-100" value="+ cardinality" style="text;strokeColor=none;fillColor=none;align=left;verticalAlign=top;spacingLeft=4;spacingRight=4;overflow=hidden;rotatable=0;points=[[0,0.5],[1,0.5]];portConstraint=eastwest;whiteSpace=wrap;html=1;" vertex="1" parent="ey-cG3cLW9nHyLrmfL4b-99">
          <mxGeometry y="26" width="140" height="26" as="geometry" />
        </mxCell>
        <mxCell id="ey-cG3cLW9nHyLrmfL4b-101" value="CLRType" style="swimlane;fontStyle=0;childLayout=stackLayout;horizontal=1;startSize=26;fillColor=#dae8fc;horizontalStack=0;resizeParent=1;resizeParentMax=0;resizeLast=0;collapsible=1;marginBottom=0;whiteSpace=wrap;html=1;strokeColor=#6c8ebf;" vertex="1" parent="1">
          <mxGeometry x="1804" y="254" width="140" height="104" as="geometry" />
        </mxCell>
        <mxCell id="ey-cG3cLW9nHyLrmfL4b-102" value="+ type&lt;div&gt;&lt;br&gt;&lt;/div&gt;" style="text;strokeColor=none;fillColor=none;align=left;verticalAlign=top;spacingLeft=4;spacingRight=4;overflow=hidden;rotatable=0;points=[[0,0.5],[1,0.5]];portConstraint=eastwest;whiteSpace=wrap;html=1;" vertex="1" parent="ey-cG3cLW9nHyLrmfL4b-101">
          <mxGeometry y="26" width="140" height="26" as="geometry" />
        </mxCell>
        <mxCell id="ey-cG3cLW9nHyLrmfL4b-103" value="+ genericParameter&lt;div&gt;&lt;br&gt;&lt;/div&gt;" style="text;strokeColor=none;fillColor=none;align=left;verticalAlign=top;spacingLeft=4;spacingRight=4;overflow=hidden;rotatable=0;points=[[0,0.5],[1,0.5]];portConstraint=eastwest;whiteSpace=wrap;html=1;" vertex="1" parent="ey-cG3cLW9nHyLrmfL4b-101">
          <mxGeometry y="52" width="140" height="26" as="geometry" />
        </mxCell>
        <mxCell id="ey-cG3cLW9nHyLrmfL4b-104" value="+ isNullable&lt;div&gt;&lt;br&gt;&lt;/div&gt;" style="text;strokeColor=none;fillColor=none;align=left;verticalAlign=top;spacingLeft=4;spacingRight=4;overflow=hidden;rotatable=0;points=[[0,0.5],[1,0.5]];portConstraint=eastwest;whiteSpace=wrap;html=1;" vertex="1" parent="ey-cG3cLW9nHyLrmfL4b-101">
          <mxGeometry y="78" width="140" height="26" as="geometry" />
        </mxCell>
        <mxCell id="ey-cG3cLW9nHyLrmfL4b-105" style="edgeStyle=orthogonalEdgeStyle;rounded=0;orthogonalLoop=1;jettySize=auto;html=1;entryX=0.115;entryY=0.002;entryDx=0;entryDy=0;exitX=0;exitY=0.5;exitDx=0;exitDy=0;entryPerimeter=0;" edge="1" parent="ey-cG3cLW9nHyLrmfL4b-101" source="ey-cG3cLW9nHyLrmfL4b-103" target="ey-cG3cLW9nHyLrmfL4b-101">
          <mxGeometry relative="1" as="geometry">
            <Array as="points">
              <mxPoint x="-20" y="65" />
              <mxPoint x="-20" y="-20" />
              <mxPoint x="16" y="-20" />
            </Array>
          </mxGeometry>
        </mxCell>
        <mxCell id="ey-cG3cLW9nHyLrmfL4b-106" value="generic&lt;br&gt;parameter&lt;br&gt;of type" style="edgeLabel;html=1;align=center;verticalAlign=middle;resizable=0;points=[];labelBackgroundColor=none;fontSize=9;" vertex="1" connectable="0" parent="ey-cG3cLW9nHyLrmfL4b-105">
          <mxGeometry x="-0.2534" relative="1" as="geometry">
            <mxPoint x="-25" as="offset" />
          </mxGeometry>
        </mxCell>
        <mxCell id="ey-cG3cLW9nHyLrmfL4b-107" value="1" style="edgeLabel;html=1;align=center;verticalAlign=middle;resizable=0;points=[];" vertex="1" connectable="0" parent="ey-cG3cLW9nHyLrmfL4b-105">
          <mxGeometry x="-0.857" y="1" relative="1" as="geometry">
            <mxPoint x="3" y="7" as="offset" />
          </mxGeometry>
        </mxCell>
        <mxCell id="ey-cG3cLW9nHyLrmfL4b-108" value="0..1" style="edgeLabel;html=1;align=center;verticalAlign=middle;resizable=0;points=[];" vertex="1" connectable="0" parent="ey-cG3cLW9nHyLrmfL4b-105">
          <mxGeometry x="0.8541" y="-2" relative="1" as="geometry">
            <mxPoint x="16" y="-1" as="offset" />
          </mxGeometry>
        </mxCell>
        <mxCell id="ey-cG3cLW9nHyLrmfL4b-109" style="edgeStyle=orthogonalEdgeStyle;rounded=0;orthogonalLoop=1;jettySize=auto;html=1;" edge="1" parent="1" source="ey-cG3cLW9nHyLrmfL4b-62" target="ey-cG3cLW9nHyLrmfL4b-81">
          <mxGeometry relative="1" as="geometry" />
        </mxCell>
        <mxCell id="ey-cG3cLW9nHyLrmfL4b-110" value="maps" style="edgeLabel;html=1;align=center;verticalAlign=middle;resizable=0;points=[];labelBackgroundColor=none;" vertex="1" connectable="0" parent="ey-cG3cLW9nHyLrmfL4b-109">
          <mxGeometry x="-0.13" relative="1" as="geometry">
            <mxPoint x="3" y="10" as="offset" />
          </mxGeometry>
        </mxCell>
        <mxCell id="ey-cG3cLW9nHyLrmfL4b-111" value="1" style="edgeLabel;html=1;align=center;verticalAlign=middle;resizable=0;points=[];" vertex="1" connectable="0" parent="ey-cG3cLW9nHyLrmfL4b-109">
          <mxGeometry x="-0.797" y="2" relative="1" as="geometry">
            <mxPoint x="-2" y="-6" as="offset" />
          </mxGeometry>
        </mxCell>
        <mxCell id="ey-cG3cLW9nHyLrmfL4b-112" value="1" style="edgeLabel;html=1;align=center;verticalAlign=middle;resizable=0;points=[];" vertex="1" connectable="0" parent="ey-cG3cLW9nHyLrmfL4b-109">
          <mxGeometry x="0.693" relative="1" as="geometry">
            <mxPoint x="-1" y="-7" as="offset" />
          </mxGeometry>
        </mxCell>
        <mxCell id="ey-cG3cLW9nHyLrmfL4b-113" style="edgeStyle=orthogonalEdgeStyle;rounded=0;orthogonalLoop=1;jettySize=auto;html=1;" edge="1" parent="1" source="ey-cG3cLW9nHyLrmfL4b-74" target="ey-cG3cLW9nHyLrmfL4b-99">
          <mxGeometry relative="1" as="geometry">
            <mxPoint x="1449" y="128" as="targetPoint" />
          </mxGeometry>
        </mxCell>
        <mxCell id="ey-cG3cLW9nHyLrmfL4b-114" value="is navigation &lt;br&gt;property for" style="edgeLabel;html=1;align=center;verticalAlign=middle;resizable=0;points=[];labelBackgroundColor=none;" vertex="1" connectable="0" parent="ey-cG3cLW9nHyLrmfL4b-113">
          <mxGeometry x="0.1973" relative="1" as="geometry">
            <mxPoint x="42" y="-15" as="offset" />
          </mxGeometry>
        </mxCell>
        <mxCell id="ey-cG3cLW9nHyLrmfL4b-115" value="1" style="edgeLabel;html=1;align=center;verticalAlign=middle;resizable=0;points=[];" vertex="1" connectable="0" parent="ey-cG3cLW9nHyLrmfL4b-113">
          <mxGeometry x="-0.9222" y="-1" relative="1" as="geometry">
            <mxPoint x="-4" y="10" as="offset" />
          </mxGeometry>
        </mxCell>
        <mxCell id="ey-cG3cLW9nHyLrmfL4b-116" value="0..1" style="edgeLabel;html=1;align=center;verticalAlign=middle;resizable=0;points=[];" vertex="1" connectable="0" parent="ey-cG3cLW9nHyLrmfL4b-113">
          <mxGeometry x="0.8706" y="-1" relative="1" as="geometry">
            <mxPoint x="-20" as="offset" />
          </mxGeometry>
        </mxCell>
      </root>
    </mxGraphModel>
  </diagram>
  <diagram id="2tYUq6LeiebTrOSwaqJt" name="abstractentity">
    <mxGraphModel dx="1097" dy="659" grid="0" gridSize="10" guides="1" tooltips="1" connect="1" arrows="1" fold="1" page="1" pageScale="1" pageWidth="827" pageHeight="1169" math="0" shadow="0">
      <root>
        <mxCell id="0" />
        <mxCell id="1" parent="0" />
        <mxCell id="ql2Bbi9gDKTdJ88GwJ8C-8" value="" style="text;whiteSpace=wrap;fillColor=default;strokeColor=#B3B3B3;rounded=0;arcSize=16;spacingLeft=0;spacingTop=5;fontSize=12;html=1;strokeWidth=4;align=center;flipH=1;fontColor=light-dark(#b2b2b2, #c1c1c1);fontFamily=Helvetica;" vertex="1" parent="1">
          <mxGeometry x="236" y="31" width="507" height="193" as="geometry" />
        </mxCell>
        <mxCell id="10KFFIFYPMZaA8trMSRA-5" value="" style="text;whiteSpace=wrap;fillColor=default;strokeColor=#B3B3B3;rounded=0;arcSize=16;spacingLeft=0;spacingTop=5;fontSize=12;html=1;strokeWidth=4;align=center;flipH=1;fontColor=#333333;fontFamily=Helvetica;horizontal=1;" vertex="1" parent="1">
          <mxGeometry x="196" y="309" width="430" height="497" as="geometry" />
        </mxCell>
        <mxCell id="Q2j2AhKXSX-BlbI9G6Kg-1" value="&lt;font style=&quot;line-height: 150%;&quot;&gt;[Table(&quot;Customers&quot;)]&lt;br&gt;class Customer&lt;br&gt;{&lt;br&gt;&amp;nbsp; &amp;nbsp;&amp;nbsp;[Key]&lt;br&gt;&amp;nbsp; &amp;nbsp; int CustomerID { get; set; }&lt;br&gt;&lt;br&gt;&amp;nbsp; &amp;nbsp;&amp;nbsp;[MaxLength(200)]&lt;br&gt;&amp;nbsp; &amp;nbsp; string CustomerName { get; set; }&lt;br&gt;&lt;br&gt;&amp;nbsp; &amp;nbsp;&amp;nbsp;[Precision(18, 2)]&lt;br&gt;&amp;nbsp; &amp;nbsp; decimal? CreditLimit { get; set; }&lt;br&gt;}&lt;/font&gt;" style="text;whiteSpace=wrap;fillColor=none;strokeColor=#B3B3B3;rounded=0;arcSize=16;spacingLeft=10;spacingTop=5;fontSize=12;html=1;strokeWidth=4;horizontal=1;flipH=1;fontColor=#333333;" vertex="1" parent="1">
          <mxGeometry x="4" y="31" width="214" height="236" as="geometry" />
        </mxCell>
        <mxCell id="ql2Bbi9gDKTdJ88GwJ8C-12" value="" style="rounded=1;whiteSpace=wrap;html=1;strokeColor=#E63946;fillColor=none;strokeWidth=2;fontSize=12;" vertex="1" parent="1">
          <mxGeometry x="14" y="44" width="115" height="16" as="geometry" />
        </mxCell>
        <mxCell id="ql2Bbi9gDKTdJ88GwJ8C-14" value="" style="endArrow=none;html=1;rounded=0;exitX=1;exitY=0.5;exitDx=0;exitDy=0;entryX=0;entryY=0.5;entryDx=0;entryDy=0;strokeColor=#E63946;fontSize=12;strokeWidth=2;" edge="1" parent="1" source="ql2Bbi9gDKTdJ88GwJ8C-12" target="ql2Bbi9gDKTdJ88GwJ8C-15">
          <mxGeometry width="50" height="50" relative="1" as="geometry">
            <mxPoint x="361" y="164" as="sourcePoint" />
            <mxPoint x="411" y="114" as="targetPoint" />
          </mxGeometry>
        </mxCell>
        <mxCell id="ql2Bbi9gDKTdJ88GwJ8C-15" value="AddTable(&quot;Customers&quot;)" style="rounded=0;whiteSpace=wrap;html=1;fontSize=12;align=left;spacingLeft=5;strokeColor=#E63946;strokeWidth=3;" vertex="1" parent="1">
          <mxGeometry x="250" y="51" width="300" height="26" as="geometry" />
        </mxCell>
        <mxCell id="ql2Bbi9gDKTdJ88GwJ8C-22" value="" style="rounded=1;whiteSpace=wrap;html=1;strokeColor=#3CB043;fillColor=none;strokeWidth=2;fontSize=12;" vertex="1" parent="1">
          <mxGeometry x="14" y="63" width="87" height="13" as="geometry" />
        </mxCell>
        <mxCell id="ql2Bbi9gDKTdJ88GwJ8C-23" value="" style="endArrow=none;html=1;rounded=0;exitX=1;exitY=0.5;exitDx=0;exitDy=0;entryX=0;entryY=0.5;entryDx=0;entryDy=0;strokeColor=#3CB043;fontSize=12;strokeWidth=2;" edge="1" parent="1" source="ql2Bbi9gDKTdJ88GwJ8C-22" target="ql2Bbi9gDKTdJ88GwJ8C-16">
          <mxGeometry width="50" height="50" relative="1" as="geometry">
            <mxPoint x="180" y="65" as="sourcePoint" />
            <mxPoint x="439" y="142" as="targetPoint" />
          </mxGeometry>
        </mxCell>
        <mxCell id="ql2Bbi9gDKTdJ88GwJ8C-25" value="" style="endArrow=none;html=1;rounded=0;entryX=0;entryY=0.5;entryDx=0;entryDy=0;strokeColor=#F4A261;fontSize=12;strokeWidth=2;exitX=1;exitY=0.5;exitDx=0;exitDy=0;" edge="1" parent="1" source="ql2Bbi9gDKTdJ88GwJ8C-26" target="ql2Bbi9gDKTdJ88GwJ8C-17">
          <mxGeometry width="50" height="50" relative="1" as="geometry">
            <mxPoint x="146" y="84" as="sourcePoint" />
            <mxPoint x="440" y="162" as="targetPoint" />
          </mxGeometry>
        </mxCell>
        <mxCell id="ql2Bbi9gDKTdJ88GwJ8C-26" value="" style="rounded=1;whiteSpace=wrap;html=1;strokeColor=#F4A261;fillColor=none;strokeWidth=2;fontSize=12;" vertex="1" parent="1">
          <mxGeometry x="27" y="152" width="99" height="16" as="geometry" />
        </mxCell>
        <mxCell id="ql2Bbi9gDKTdJ88GwJ8C-27" value="" style="rounded=1;whiteSpace=wrap;html=1;strokeColor=#1F4AE0;fillColor=none;strokeWidth=2;fontSize=12;" vertex="1" parent="1">
          <mxGeometry x="27" y="171" width="183" height="15" as="geometry" />
        </mxCell>
        <mxCell id="ql2Bbi9gDKTdJ88GwJ8C-28" value="" style="endArrow=none;html=1;rounded=0;entryX=0;entryY=0.5;entryDx=0;entryDy=0;strokeColor=#1F4AE0;fontSize=12;strokeWidth=2;exitX=1;exitY=0.5;exitDx=0;exitDy=0;" edge="1" parent="1" source="ql2Bbi9gDKTdJ88GwJ8C-27" target="ql2Bbi9gDKTdJ88GwJ8C-18">
          <mxGeometry width="50" height="50" relative="1" as="geometry">
            <mxPoint x="177" y="180" as="sourcePoint" />
            <mxPoint x="438" y="193" as="targetPoint" />
          </mxGeometry>
        </mxCell>
        <mxCell id="-64f7kGUB_Y_gLfmBC3s-1" value="&lt;font&gt;EF Core entity&lt;/font&gt;" style="text;html=1;align=right;verticalAlign=middle;whiteSpace=wrap;rounded=0;fontSize=12;fontStyle=1" vertex="1" parent="1">
          <mxGeometry x="92" y="1" width="132" height="30" as="geometry" />
        </mxCell>
        <mxCell id="-64f7kGUB_Y_gLfmBC3s-2" value="NHibernateEntityBuilder" style="text;html=1;align=right;verticalAlign=middle;whiteSpace=wrap;rounded=0;fontSize=12;fontStyle=1" vertex="1" parent="1">
          <mxGeometry x="454" y="279" width="172" height="30" as="geometry" />
        </mxCell>
        <mxCell id="-64f7kGUB_Y_gLfmBC3s-3" value="&lt;b&gt;EFCoreEntityParser&lt;/b&gt;" style="text;html=1;align=right;verticalAlign=middle;whiteSpace=wrap;rounded=0;fontSize=12;fontStyle=1" vertex="1" parent="1">
          <mxGeometry x="586" y="1" width="157" height="30" as="geometry" />
        </mxCell>
        <mxCell id="AFlGKypGWuBsIOUz_4Os-1" value="" style="shape=flexArrow;endArrow=classic;html=1;rounded=0;fillColor=#f5f5f5;strokeColor=#666666;startWidth=131.0344827586207;endWidth=26.753864447086798;startSize=5.048275862068966;endSize=6.951724137931035;width=26.20689655172414;fontSize=12;" edge="1" parent="1">
          <mxGeometry width="50" height="50" relative="1" as="geometry">
            <mxPoint x="721.5" y="259" as="sourcePoint" />
            <mxPoint x="650" y="313" as="targetPoint" />
            <Array as="points">
              <mxPoint x="720" y="310" />
            </Array>
          </mxGeometry>
        </mxCell>
        <mxCell id="YdKYXaBzJq4rRvPgMZjn-1" style="edgeStyle=orthogonalEdgeStyle;rounded=0;orthogonalLoop=1;jettySize=auto;html=1;endArrow=none;startFill=0;fontSize=12;" edge="1" parent="1" source="YdKYXaBzJq4rRvPgMZjn-5" target="YdKYXaBzJq4rRvPgMZjn-16">
          <mxGeometry relative="1" as="geometry" />
        </mxCell>
        <mxCell id="YdKYXaBzJq4rRvPgMZjn-5" value="customerMap: EntityMap" style="swimlane;fontStyle=0;childLayout=stackLayout;horizontal=1;startSize=26;fillColor=#d5e8d4;horizontalStack=0;resizeParent=1;resizeParentMax=0;resizeLast=0;collapsible=1;marginBottom=0;whiteSpace=wrap;html=1;strokeColor=#82b366;fontSize=12;" vertex="1" parent="1">
          <mxGeometry x="236" y="322" width="165" height="78" as="geometry">
            <mxRectangle x="1750" y="80" width="90" height="30" as="alternateBounds" />
          </mxGeometry>
        </mxCell>
        <mxCell id="YdKYXaBzJq4rRvPgMZjn-6" value="schemaName = null&lt;div&gt;&lt;br&gt;&lt;/div&gt;" style="text;strokeColor=none;fillColor=none;align=left;verticalAlign=top;spacingLeft=4;spacingRight=4;overflow=hidden;rotatable=0;points=[[0,0.5],[1,0.5]];portConstraint=eastwest;whiteSpace=wrap;html=1;fontSize=12;" vertex="1" parent="YdKYXaBzJq4rRvPgMZjn-5">
          <mxGeometry y="26" width="165" height="26" as="geometry" />
        </mxCell>
        <mxCell id="YdKYXaBzJq4rRvPgMZjn-7" value="tableName = &quot;Customers&quot;" style="text;strokeColor=none;fillColor=none;align=left;verticalAlign=top;spacingLeft=4;spacingRight=4;overflow=hidden;rotatable=0;points=[[0,0.5],[1,0.5]];portConstraint=eastwest;whiteSpace=wrap;html=1;fontSize=12;" vertex="1" parent="YdKYXaBzJq4rRvPgMZjn-5">
          <mxGeometry y="52" width="165" height="26" as="geometry" />
        </mxCell>
        <mxCell id="YdKYXaBzJq4rRvPgMZjn-8" style="edgeStyle=orthogonalEdgeStyle;rounded=0;orthogonalLoop=1;jettySize=auto;html=1;entryX=0.5;entryY=0;entryDx=0;entryDy=0;startArrow=none;startFill=0;endArrow=none;fontSize=12;" edge="1" parent="1" source="YdKYXaBzJq4rRvPgMZjn-16" target="YdKYXaBzJq4rRvPgMZjn-36">
          <mxGeometry relative="1" as="geometry" />
        </mxCell>
        <mxCell id="YdKYXaBzJq4rRvPgMZjn-12" style="edgeStyle=orthogonalEdgeStyle;rounded=0;orthogonalLoop=1;jettySize=auto;html=1;endArrow=none;startFill=0;fontSize=12;" edge="1" parent="1" source="YdKYXaBzJq4rRvPgMZjn-16" target="YdKYXaBzJq4rRvPgMZjn-33">
          <mxGeometry relative="1" as="geometry" />
        </mxCell>
        <mxCell id="YdKYXaBzJq4rRvPgMZjn-16" value="pm1: PropertyMap" style="swimlane;fontStyle=0;childLayout=stackLayout;horizontal=1;startSize=26;fillColor=#d5e8d4;horizontalStack=0;resizeParent=1;resizeParentMax=0;resizeLast=0;collapsible=1;marginBottom=0;whiteSpace=wrap;html=1;strokeColor=#82b366;fontSize=12;" vertex="1" parent="1">
          <mxGeometry x="236" y="429" width="166" height="104" as="geometry" />
        </mxCell>
        <mxCell id="YdKYXaBzJq4rRvPgMZjn-17" value="columnName = null&lt;div&gt;&lt;br&gt;&lt;/div&gt;" style="text;strokeColor=none;fillColor=none;align=left;verticalAlign=top;spacingLeft=4;spacingRight=4;overflow=hidden;rotatable=0;points=[[0,0.5],[1,0.5]];portConstraint=eastwest;whiteSpace=wrap;html=1;fontSize=12;" vertex="1" parent="YdKYXaBzJq4rRvPgMZjn-16">
          <mxGeometry y="26" width="166" height="26" as="geometry" />
        </mxCell>
        <mxCell id="YdKYXaBzJq4rRvPgMZjn-18" value="databaseType = null&lt;div&gt;&lt;br&gt;&lt;/div&gt;" style="text;strokeColor=none;fillColor=none;align=left;verticalAlign=top;spacingLeft=4;spacingRight=4;overflow=hidden;rotatable=0;points=[[0,0.5],[1,0.5]];portConstraint=eastwest;whiteSpace=wrap;html=1;fontSize=12;" vertex="1" parent="YdKYXaBzJq4rRvPgMZjn-16">
          <mxGeometry y="52" width="166" height="26" as="geometry" />
        </mxCell>
        <mxCell id="YdKYXaBzJq4rRvPgMZjn-19" value="isNullable = null" style="text;strokeColor=none;fillColor=none;align=left;verticalAlign=top;spacingLeft=4;spacingRight=4;overflow=hidden;rotatable=0;points=[[0,0.5],[1,0.5]];portConstraint=eastwest;whiteSpace=wrap;html=1;fontSize=12;" vertex="1" parent="YdKYXaBzJq4rRvPgMZjn-16">
          <mxGeometry y="78" width="166" height="26" as="geometry" />
        </mxCell>
        <mxCell id="YdKYXaBzJq4rRvPgMZjn-20" style="edgeStyle=orthogonalEdgeStyle;rounded=0;orthogonalLoop=1;jettySize=auto;html=1;entryX=0.5;entryY=0;entryDx=0;entryDy=0;startArrow=none;startFill=0;endArrow=none;fontSize=12;" edge="1" parent="1" source="YdKYXaBzJq4rRvPgMZjn-24" target="YdKYXaBzJq4rRvPgMZjn-32">
          <mxGeometry relative="1" as="geometry" />
        </mxCell>
        <mxCell id="YdKYXaBzJq4rRvPgMZjn-24" value="customer: Entity" style="swimlane;fontStyle=0;childLayout=stackLayout;horizontal=1;startSize=26;fillColor=#dae8fc;horizontalStack=0;resizeParent=1;resizeParentMax=0;resizeLast=0;collapsible=1;marginBottom=0;whiteSpace=wrap;html=1;strokeColor=#6c8ebf;fontSize=12;" vertex="1" parent="1">
          <mxGeometry x="438" y="322" width="153" height="104" as="geometry" />
        </mxCell>
        <mxCell id="YdKYXaBzJq4rRvPgMZjn-25" value="name = &quot;Customer&quot;" style="text;strokeColor=none;fillColor=none;align=left;verticalAlign=top;spacingLeft=4;spacingRight=4;overflow=hidden;rotatable=0;points=[[0,0.5],[1,0.5]];portConstraint=eastwest;whiteSpace=wrap;html=1;fontSize=12;" vertex="1" parent="YdKYXaBzJq4rRvPgMZjn-24">
          <mxGeometry y="26" width="153" height="26" as="geometry" />
        </mxCell>
        <mxCell id="YdKYXaBzJq4rRvPgMZjn-26" value="accessModifier = &quot;internal&quot;" style="text;strokeColor=none;fillColor=none;align=left;verticalAlign=top;spacingLeft=4;spacingRight=4;overflow=hidden;rotatable=0;points=[[0,0.5],[1,0.5]];portConstraint=eastwest;whiteSpace=wrap;html=1;fontSize=12;" vertex="1" parent="YdKYXaBzJq4rRvPgMZjn-24">
          <mxGeometry y="52" width="153" height="26" as="geometry" />
        </mxCell>
        <mxCell id="YdKYXaBzJq4rRvPgMZjn-27" value="namespace" style="text;strokeColor=none;fillColor=none;align=left;verticalAlign=top;spacingLeft=4;spacingRight=4;overflow=hidden;rotatable=0;points=[[0,0.5],[1,0.5]];portConstraint=eastwest;whiteSpace=wrap;html=1;fontSize=12;" vertex="1" parent="YdKYXaBzJq4rRvPgMZjn-24">
          <mxGeometry y="78" width="153" height="26" as="geometry" />
        </mxCell>
        <mxCell id="YdKYXaBzJq4rRvPgMZjn-28" style="edgeStyle=orthogonalEdgeStyle;rounded=0;orthogonalLoop=1;jettySize=auto;html=1;endArrow=none;startFill=0;fontSize=12;" edge="1" parent="1" source="YdKYXaBzJq4rRvPgMZjn-32" target="YdKYXaBzJq4rRvPgMZjn-45">
          <mxGeometry relative="1" as="geometry" />
        </mxCell>
        <mxCell id="YdKYXaBzJq4rRvPgMZjn-32" value="p1: Property" style="swimlane;fontStyle=0;childLayout=stackLayout;horizontal=1;startSize=26;fillColor=#dae8fc;horizontalStack=0;resizeParent=1;resizeParentMax=0;resizeLast=0;collapsible=1;marginBottom=0;whiteSpace=wrap;html=1;strokeColor=#6c8ebf;fontSize=12;" vertex="1" parent="1">
          <mxGeometry x="437" y="442" width="154" height="104" as="geometry" />
        </mxCell>
        <mxCell id="YdKYXaBzJq4rRvPgMZjn-33" value="name: &quot;CustomerName&quot;" style="text;strokeColor=none;fillColor=none;align=left;verticalAlign=top;spacingLeft=4;spacingRight=4;overflow=hidden;rotatable=0;points=[[0,0.5],[1,0.5]];portConstraint=eastwest;whiteSpace=wrap;html=1;fontSize=12;" vertex="1" parent="YdKYXaBzJq4rRvPgMZjn-32">
          <mxGeometry y="26" width="154" height="26" as="geometry" />
        </mxCell>
        <mxCell id="YdKYXaBzJq4rRvPgMZjn-34" value="accessModifier = &quot;internal&quot;" style="text;strokeColor=none;fillColor=none;align=left;verticalAlign=top;spacingLeft=4;spacingRight=4;overflow=hidden;rotatable=0;points=[[0,0.5],[1,0.5]];portConstraint=eastwest;whiteSpace=wrap;html=1;fontSize=12;" vertex="1" parent="YdKYXaBzJq4rRvPgMZjn-32">
          <mxGeometry y="52" width="154" height="26" as="geometry" />
        </mxCell>
        <mxCell id="YdKYXaBzJq4rRvPgMZjn-35" value="modifiers = [ ]" style="text;strokeColor=none;fillColor=none;align=left;verticalAlign=top;spacingLeft=4;spacingRight=4;overflow=hidden;rotatable=0;points=[[0,0.5],[1,0.5]];portConstraint=eastwest;whiteSpace=wrap;html=1;fontSize=12;" vertex="1" parent="YdKYXaBzJq4rRvPgMZjn-32">
          <mxGeometry y="78" width="154" height="26" as="geometry" />
        </mxCell>
        <mxCell id="YdKYXaBzJq4rRvPgMZjn-36" value="dp1: DatabaseProperty" style="swimlane;fontStyle=0;childLayout=stackLayout;horizontal=1;startSize=26;fillColor=#d5e8d4;horizontalStack=0;resizeParent=1;resizeParentMax=0;resizeLast=0;collapsible=1;marginBottom=0;whiteSpace=wrap;html=1;strokeColor=#82b366;fontSize=12;" vertex="1" parent="1">
          <mxGeometry x="236" y="553" width="166" height="78" as="geometry" />
        </mxCell>
        <mxCell id="YdKYXaBzJq4rRvPgMZjn-37" value="key = &quot;length&quot;&lt;div&gt;&lt;br&gt;&lt;/div&gt;" style="text;strokeColor=none;fillColor=none;align=left;verticalAlign=top;spacingLeft=4;spacingRight=4;overflow=hidden;rotatable=0;points=[[0,0.5],[1,0.5]];portConstraint=eastwest;whiteSpace=wrap;html=1;fontSize=12;" vertex="1" parent="YdKYXaBzJq4rRvPgMZjn-36">
          <mxGeometry y="26" width="166" height="26" as="geometry" />
        </mxCell>
        <mxCell id="YdKYXaBzJq4rRvPgMZjn-38" value="value = &quot;200&quot;&lt;div&gt;&lt;br&gt;&lt;/div&gt;" style="text;strokeColor=none;fillColor=none;align=left;verticalAlign=top;spacingLeft=4;spacingRight=4;overflow=hidden;rotatable=0;points=[[0,0.5],[1,0.5]];portConstraint=eastwest;whiteSpace=wrap;html=1;fontSize=12;" vertex="1" parent="YdKYXaBzJq4rRvPgMZjn-36">
          <mxGeometry y="52" width="166" height="26" as="geometry" />
        </mxCell>
        <mxCell id="YdKYXaBzJq4rRvPgMZjn-45" value="p1Type: CLRType" style="swimlane;fontStyle=0;childLayout=stackLayout;horizontal=1;startSize=26;fillColor=#dae8fc;horizontalStack=0;resizeParent=1;resizeParentMax=0;resizeLast=0;collapsible=1;marginBottom=0;whiteSpace=wrap;html=1;strokeColor=#6c8ebf;fontSize=12;" vertex="1" parent="1">
          <mxGeometry x="436" y="561" width="155" height="104" as="geometry" />
        </mxCell>
        <mxCell id="YdKYXaBzJq4rRvPgMZjn-46" value="type = &quot;string&quot;&lt;div&gt;&lt;br&gt;&lt;/div&gt;" style="text;strokeColor=none;fillColor=none;align=left;verticalAlign=top;spacingLeft=4;spacingRight=4;overflow=hidden;rotatable=0;points=[[0,0.5],[1,0.5]];portConstraint=eastwest;whiteSpace=wrap;html=1;fontSize=12;" vertex="1" parent="YdKYXaBzJq4rRvPgMZjn-45">
          <mxGeometry y="26" width="155" height="26" as="geometry" />
        </mxCell>
        <mxCell id="YdKYXaBzJq4rRvPgMZjn-47" value="genericParameter = null&lt;div&gt;&lt;br&gt;&lt;/div&gt;" style="text;strokeColor=none;fillColor=none;align=left;verticalAlign=top;spacingLeft=4;spacingRight=4;overflow=hidden;rotatable=0;points=[[0,0.5],[1,0.5]];portConstraint=eastwest;whiteSpace=wrap;html=1;fontSize=12;" vertex="1" parent="YdKYXaBzJq4rRvPgMZjn-45">
          <mxGeometry y="52" width="155" height="26" as="geometry" />
        </mxCell>
        <mxCell id="YdKYXaBzJq4rRvPgMZjn-48" value="isNullable = false&lt;div&gt;&lt;br&gt;&lt;/div&gt;" style="text;strokeColor=none;fillColor=none;align=left;verticalAlign=top;spacingLeft=4;spacingRight=4;overflow=hidden;rotatable=0;points=[[0,0.5],[1,0.5]];portConstraint=eastwest;whiteSpace=wrap;html=1;fontSize=12;" vertex="1" parent="YdKYXaBzJq4rRvPgMZjn-45">
          <mxGeometry y="78" width="155" height="26" as="geometry" />
        </mxCell>
        <mxCell id="YdKYXaBzJq4rRvPgMZjn-53" style="edgeStyle=orthogonalEdgeStyle;rounded=0;orthogonalLoop=1;jettySize=auto;html=1;endArrow=none;startFill=0;fontSize=12;" edge="1" parent="1" source="YdKYXaBzJq4rRvPgMZjn-6" target="YdKYXaBzJq4rRvPgMZjn-25">
          <mxGeometry relative="1" as="geometry" />
        </mxCell>
        <mxCell id="10KFFIFYPMZaA8trMSRA-3" value="&lt;div&gt;internal class Customer&lt;/div&gt;&lt;div&gt;{&lt;/div&gt;&lt;div&gt;&amp;nbsp; &amp;nbsp; internal virtual int CustomerID { get; set; }&lt;/div&gt;&lt;div&gt;&lt;br&gt;&lt;/div&gt;&lt;div&gt;&amp;nbsp; &amp;nbsp; internal virtual string CustomerName { get; set; }&lt;/div&gt;&lt;div&gt;&lt;br&gt;&lt;/div&gt;&lt;div&gt;&amp;nbsp; &amp;nbsp; internal virtual decimal? CreditLimit { get; set; }&lt;/div&gt;&lt;div&gt;}&lt;/div&gt;&lt;div&gt;&lt;br&gt;&lt;/div&gt;" style="text;whiteSpace=wrap;fillColor=none;strokeColor=#666666;rounded=0;arcSize=16;spacingLeft=10;spacingTop=5;fontSize=12;html=1;strokeWidth=4;horizontal=1;opacity=50;flipH=1;fontColor=#333333;" vertex="1" parent="1">
          <mxGeometry x="15" y="861" width="302" height="139" as="geometry" />
        </mxCell>
        <mxCell id="10KFFIFYPMZaA8trMSRA-4" value="&lt;div style=&quot;line-height: 140%;&quot;&gt;&lt;div&gt;&amp;lt;?xml version=&quot;1.0&quot; encoding=&quot;utf-8&quot; ?&amp;gt;&lt;/div&gt;&lt;div&gt;&amp;lt;hibernate-mapping xmlns=&quot;urn:nhibernate-mapping-2.2&quot;&amp;gt;&lt;/div&gt;&lt;div&gt;&amp;nbsp; &amp;nbsp; &amp;lt;class name=&quot;Customer&quot; table=&quot;Customers&quot;&amp;gt;&lt;/div&gt;&lt;div&gt;&amp;nbsp; &amp;nbsp; &amp;nbsp; &amp;nbsp; &amp;lt;id name=&quot;CustomerID&quot; column=&quot;CustomerID&quot; type=&quot;Int32&quot; /&amp;gt;&lt;/div&gt;&lt;div&gt;&amp;nbsp; &amp;nbsp; &amp;nbsp; &amp;nbsp; &amp;lt;property name=&quot;CustomerName&quot; not-null=&quot;true&quot;&amp;nbsp;type=&quot;String&quot; length=&quot;200&quot; /&amp;gt;&lt;/div&gt;&lt;div&gt;&amp;nbsp; &amp;nbsp; &amp;nbsp; &amp;nbsp; &amp;lt;property name=&quot;CreditLimit&quot; not-null=&quot;false&quot; precision=&quot;18&quot; scale=&quot;2&quot; /&amp;gt;&lt;/div&gt;&lt;div&gt;&amp;nbsp; &amp;nbsp; &amp;lt;/class&amp;gt;&lt;/div&gt;&lt;div&gt;&amp;lt;/hibernate-mapping&amp;gt;&lt;/div&gt;&lt;/div&gt;" style="text;whiteSpace=wrap;fillColor=none;strokeColor=#666666;rounded=0;arcSize=16;spacingLeft=10;spacingTop=5;fontSize=12;html=1;strokeWidth=4;horizontal=1;opacity=50;flipH=1;fontColor=#333333;" vertex="1" parent="1">
          <mxGeometry x="333" y="843" width="466" height="157" as="geometry" />
        </mxCell>
        <mxCell id="ql2Bbi9gDKTdJ88GwJ8C-18" value="AddProperty(&quot;string&quot;, &quot;CustomerName&quot;)" style="rounded=0;whiteSpace=wrap;html=1;fontSize=12;align=left;spacingLeft=5;imageWidth=24;strokeColor=#1F4AE0;strokeWidth=3;fillColor=default;" vertex="1" parent="1">
          <mxGeometry x="250" y="178" width="300" height="26" as="geometry" />
        </mxCell>
        <mxCell id="ql2Bbi9gDKTdJ88GwJ8C-17" value="AddPropertyMapping(&quot;CustomerName&quot;, length: &quot;200&quot;)" style="rounded=0;whiteSpace=wrap;html=1;fontSize=12;align=left;spacingLeft=5;strokeColor=#F4A261;strokeWidth=3;" vertex="1" parent="1">
          <mxGeometry x="250" y="136" width="300" height="26" as="geometry" />
        </mxCell>
        <mxCell id="ql2Bbi9gDKTdJ88GwJ8C-16" value="AddClassHeader(&quot;internal&quot;, &quot;Customer&quot;)" style="rounded=0;whiteSpace=wrap;html=1;fontSize=12;align=left;spacingLeft=5;strokeColor=#3CB043;strokeWidth=3;" vertex="1" parent="1">
          <mxGeometry x="250" y="93" width="300" height="26" as="geometry" />
        </mxCell>
        <mxCell id="10KFFIFYPMZaA8trMSRA-15" value="" style="endArrow=none;html=1;rounded=0;exitX=1;exitY=0.5;exitDx=0;exitDy=0;entryX=0;entryY=0.5;entryDx=0;entryDy=0;strokeColor=#E63946;fontSize=12;strokeWidth=2;" edge="1" parent="1" source="ql2Bbi9gDKTdJ88GwJ8C-15" target="10KFFIFYPMZaA8trMSRA-6">
          <mxGeometry width="50" height="50" relative="1" as="geometry">
            <mxPoint x="139" y="62" as="sourcePoint" />
            <mxPoint x="275" y="74" as="targetPoint" />
          </mxGeometry>
        </mxCell>
        <mxCell id="10KFFIFYPMZaA8trMSRA-16" value="" style="endArrow=none;html=1;rounded=0;exitX=1;exitY=0.5;exitDx=0;exitDy=0;entryX=0;entryY=0.5;entryDx=0;entryDy=0;strokeColor=#3CB043;fontSize=12;strokeWidth=2;" edge="1" parent="1" source="ql2Bbi9gDKTdJ88GwJ8C-16" target="10KFFIFYPMZaA8trMSRA-6">
          <mxGeometry width="50" height="50" relative="1" as="geometry">
            <mxPoint x="111" y="80" as="sourcePoint" />
            <mxPoint x="275" y="116" as="targetPoint" />
          </mxGeometry>
        </mxCell>
        <mxCell id="10KFFIFYPMZaA8trMSRA-17" value="" style="endArrow=none;html=1;rounded=0;entryX=0;entryY=0.5;entryDx=0;entryDy=0;strokeColor=#F4A261;fontSize=12;strokeWidth=2;exitX=1;exitY=0.5;exitDx=0;exitDy=0;" edge="1" parent="1" source="ql2Bbi9gDKTdJ88GwJ8C-17" target="10KFFIFYPMZaA8trMSRA-6">
          <mxGeometry width="50" height="50" relative="1" as="geometry">
            <mxPoint x="136" y="170" as="sourcePoint" />
            <mxPoint x="275" y="159" as="targetPoint" />
          </mxGeometry>
        </mxCell>
        <mxCell id="10KFFIFYPMZaA8trMSRA-18" value="" style="endArrow=none;html=1;rounded=0;entryX=0;entryY=0.5;entryDx=0;entryDy=0;strokeColor=#1F4AE0;fontSize=12;strokeWidth=2;exitX=1;exitY=0.5;exitDx=0;exitDy=0;" edge="1" parent="1" source="ql2Bbi9gDKTdJ88GwJ8C-18" target="10KFFIFYPMZaA8trMSRA-6">
          <mxGeometry width="50" height="50" relative="1" as="geometry">
            <mxPoint x="220" y="189" as="sourcePoint" />
            <mxPoint x="275" y="201" as="targetPoint" />
          </mxGeometry>
        </mxCell>
        <mxCell id="10KFFIFYPMZaA8trMSRA-6" value="&lt;span style=&quot;color: rgb(0, 0, 0); font-weight: 700; text-align: right;&quot;&gt;NHibernateEntityBuilder&lt;/span&gt;" style="text;whiteSpace=wrap;fillColor=none;strokeColor=#B3B3B3;rounded=0;arcSize=16;spacingLeft=0;spacingTop=5;fontSize=12;html=1;strokeWidth=4;align=center;flipH=1;fontColor=light-dark(#b2b2b2, #c1c1c1);" vertex="1" parent="1">
          <mxGeometry x="574" y="108" width="154" height="35" as="geometry" />
        </mxCell>
        <mxCell id="WWRZg-ttkqtkzMgX7KjE-1" value="" style="rounded=1;whiteSpace=wrap;html=1;strokeColor=#F4A261;fillColor=none;strokeWidth=2;fontSize=12;" vertex="1" parent="1">
          <mxGeometry x="239" y="483" width="128" height="27" as="geometry" />
        </mxCell>
        <mxCell id="WWRZg-ttkqtkzMgX7KjE-55" style="rounded=0;orthogonalLoop=1;jettySize=auto;html=1;entryX=0.5;entryY=0;entryDx=0;entryDy=0;exitX=0.5;exitY=1;exitDx=0;exitDy=0;strokeWidth=2;" edge="1" parent="1" source="WWRZg-ttkqtkzMgX7KjE-4" target="WWRZg-ttkqtkzMgX7KjE-5">
          <mxGeometry relative="1" as="geometry" />
        </mxCell>
        <mxCell id="WWRZg-ttkqtkzMgX7KjE-56" style="rounded=0;orthogonalLoop=1;jettySize=auto;html=1;exitX=0.5;exitY=1;exitDx=0;exitDy=0;entryX=0.5;entryY=0;entryDx=0;entryDy=0;strokeWidth=2;" edge="1" parent="1" source="WWRZg-ttkqtkzMgX7KjE-4" target="WWRZg-ttkqtkzMgX7KjE-7">
          <mxGeometry relative="1" as="geometry" />
        </mxCell>
        <mxCell id="WWRZg-ttkqtkzMgX7KjE-4" value="&lt;div&gt;&lt;b&gt;Build()&lt;/b&gt;&lt;/div&gt;" style="text;whiteSpace=wrap;fillColor=none;strokeColor=#000000;rounded=0;arcSize=16;spacingLeft=0;spacingTop=0;fontSize=12;html=1;strokeWidth=2;horizontal=1;flipH=1;fontColor=#333333;align=center;verticalAlign=middle;" vertex="1" parent="1">
          <mxGeometry x="371.5" y="700" width="65.5" height="34" as="geometry" />
        </mxCell>
        <mxCell id="WWRZg-ttkqtkzMgX7KjE-59" style="rounded=0;orthogonalLoop=1;jettySize=auto;html=1;entryX=0.5;entryY=0;entryDx=0;entryDy=0;exitX=0.5;exitY=1;exitDx=0;exitDy=0;strokeColor=#3CB043;strokeWidth=2;" edge="1" parent="1" source="WWRZg-ttkqtkzMgX7KjE-5" target="WWRZg-ttkqtkzMgX7KjE-57">
          <mxGeometry relative="1" as="geometry" />
        </mxCell>
        <mxCell id="WWRZg-ttkqtkzMgX7KjE-60" style="rounded=0;orthogonalLoop=1;jettySize=auto;html=1;entryX=0.5;entryY=0;entryDx=0;entryDy=0;exitX=0.5;exitY=1;exitDx=0;exitDy=0;strokeColor=#3CB043;strokeWidth=2;" edge="1" parent="1" source="WWRZg-ttkqtkzMgX7KjE-5" target="WWRZg-ttkqtkzMgX7KjE-58">
          <mxGeometry relative="1" as="geometry" />
        </mxCell>
        <mxCell id="WWRZg-ttkqtkzMgX7KjE-5" value="&lt;div&gt;&lt;span style=&quot;background-color: transparent;&quot;&gt;&lt;b&gt;BuildTableSchema&lt;/b&gt;&lt;/span&gt;&lt;b&gt;()&lt;/b&gt;&lt;/div&gt;" style="text;whiteSpace=wrap;fillColor=none;strokeColor=#3CB043;rounded=0;arcSize=16;spacingLeft=0;spacingTop=0;fontSize=12;html=1;strokeWidth=2;horizontal=1;flipH=1;fontColor=#333333;align=center;verticalAlign=middle;" vertex="1" parent="1">
          <mxGeometry x="241.5" y="759" width="132" height="34" as="geometry" />
        </mxCell>
        <mxCell id="WWRZg-ttkqtkzMgX7KjE-7" value="&lt;b&gt;BuildProperties()&lt;/b&gt;" style="text;whiteSpace=wrap;fillColor=none;strokeColor=#1F4AE0;rounded=0;arcSize=16;spacingLeft=0;spacingTop=0;fontSize=12;html=1;strokeWidth=2;horizontal=1;flipH=1;fontColor=#333333;align=center;verticalAlign=middle;" vertex="1" parent="1">
          <mxGeometry x="439" y="759" width="111" height="34" as="geometry" />
        </mxCell>
        <mxCell id="WWRZg-ttkqtkzMgX7KjE-10" value="" style="endArrow=none;html=1;rounded=0;entryX=0;entryY=0.25;entryDx=0;entryDy=0;strokeColor=#F4A261;fontSize=12;strokeWidth=3;startArrow=classic;startFill=1;" edge="1" parent="1" target="WWRZg-ttkqtkzMgX7KjE-1">
          <mxGeometry width="50" height="50" relative="1" as="geometry">
            <mxPoint x="83" y="490" as="sourcePoint" />
            <mxPoint x="198" y="408" as="targetPoint" />
          </mxGeometry>
        </mxCell>
        <mxCell id="WWRZg-ttkqtkzMgX7KjE-11" value="DATA_TYPE?" style="edgeLabel;html=1;align=center;verticalAlign=middle;resizable=0;points=[];" vertex="1" connectable="0" parent="WWRZg-ttkqtkzMgX7KjE-10">
          <mxGeometry x="0.078" y="1" relative="1" as="geometry">
            <mxPoint x="-22" y="-11" as="offset" />
          </mxGeometry>
        </mxCell>
        <mxCell id="WWRZg-ttkqtkzMgX7KjE-12" value="" style="endArrow=none;html=1;rounded=0;strokeColor=#F4A261;fontSize=12;strokeWidth=3;exitX=0;exitY=0.75;exitDx=0;exitDy=0;startArrow=classic;startFill=1;" edge="1" parent="1" source="WWRZg-ttkqtkzMgX7KjE-1">
          <mxGeometry width="50" height="50" relative="1" as="geometry">
            <mxPoint x="107" y="522" as="sourcePoint" />
            <mxPoint x="83" y="503" as="targetPoint" />
          </mxGeometry>
        </mxCell>
        <mxCell id="WWRZg-ttkqtkzMgX7KjE-13" value="NVARCHAR" style="edgeLabel;html=1;align=center;verticalAlign=middle;resizable=0;points=[];" vertex="1" connectable="0" parent="WWRZg-ttkqtkzMgX7KjE-12">
          <mxGeometry x="0.078" y="1" relative="1" as="geometry">
            <mxPoint x="-10" y="10" as="offset" />
          </mxGeometry>
        </mxCell>
        <mxCell id="WWRZg-ttkqtkzMgX7KjE-52" value="NHibernate entity" style="text;html=1;align=right;verticalAlign=middle;whiteSpace=wrap;rounded=0;fontSize=12;fontStyle=1" vertex="1" parent="1">
          <mxGeometry x="145" y="833" width="172" height="30" as="geometry" />
        </mxCell>
        <mxCell id="WWRZg-ttkqtkzMgX7KjE-53" value="NHibernate XML mapping" style="text;html=1;align=right;verticalAlign=middle;whiteSpace=wrap;rounded=0;fontSize=12;fontStyle=1" vertex="1" parent="1">
          <mxGeometry x="627" y="813" width="172" height="30" as="geometry" />
        </mxCell>
        <mxCell id="WWRZg-ttkqtkzMgX7KjE-57" value="" style="rounded=1;whiteSpace=wrap;html=1;strokeColor=#3CB043;fillColor=none;strokeWidth=2;fontSize=12;" vertex="1" parent="1">
          <mxGeometry x="24" y="870" width="132" height="17" as="geometry" />
        </mxCell>
        <mxCell id="WWRZg-ttkqtkzMgX7KjE-58" value="" style="rounded=1;whiteSpace=wrap;html=1;strokeColor=#3CB043;fillColor=none;strokeWidth=2;fontSize=12;" vertex="1" parent="1">
          <mxGeometry x="356" y="889" width="252.75" height="17" as="geometry" />
        </mxCell>
        <mxCell id="WWRZg-ttkqtkzMgX7KjE-63" value="" style="rounded=1;whiteSpace=wrap;html=1;strokeColor=#1F4AE0;fillColor=none;strokeWidth=2;fontSize=12;" vertex="1" parent="1">
          <mxGeometry x="369" y="923" width="426" height="17" as="geometry" />
        </mxCell>
        <mxCell id="WWRZg-ttkqtkzMgX7KjE-65" value="" style="rounded=1;whiteSpace=wrap;html=1;strokeColor=#F4A261;fillColor=none;strokeWidth=2;fontSize=12;" vertex="1" parent="1">
          <mxGeometry x="636" y="923" width="73" height="17" as="geometry" />
        </mxCell>
        <mxCell id="WWRZg-ttkqtkzMgX7KjE-66" value="" style="rounded=1;whiteSpace=wrap;html=1;strokeColor=#1F4AE0;fillColor=none;strokeWidth=2;fontSize=12;" vertex="1" parent="1">
          <mxGeometry x="37" y="928" width="261" height="18" as="geometry" />
        </mxCell>
        <mxCell id="WWRZg-ttkqtkzMgX7KjE-67" style="rounded=0;orthogonalLoop=1;jettySize=auto;html=1;entryX=0.5;entryY=0;entryDx=0;entryDy=0;exitX=0.5;exitY=1;exitDx=0;exitDy=0;strokeColor=#1F4AE0;strokeWidth=2;" edge="1" parent="1" source="WWRZg-ttkqtkzMgX7KjE-7" target="WWRZg-ttkqtkzMgX7KjE-66">
          <mxGeometry relative="1" as="geometry">
            <mxPoint x="332" y="803" as="sourcePoint" />
            <mxPoint x="492" y="899" as="targetPoint" />
          </mxGeometry>
        </mxCell>
        <mxCell id="WWRZg-ttkqtkzMgX7KjE-68" style="rounded=0;orthogonalLoop=1;jettySize=auto;html=1;entryX=0.5;entryY=0;entryDx=0;entryDy=0;exitX=0.5;exitY=1;exitDx=0;exitDy=0;strokeColor=#1F4AE0;strokeWidth=2;" edge="1" parent="1" source="WWRZg-ttkqtkzMgX7KjE-7" target="WWRZg-ttkqtkzMgX7KjE-63">
          <mxGeometry relative="1" as="geometry">
            <mxPoint x="519" y="803" as="sourcePoint" />
            <mxPoint x="177" y="938" as="targetPoint" />
          </mxGeometry>
        </mxCell>
        <mxCell id="WWRZg-ttkqtkzMgX7KjE-69" value="" style="shape=flexArrow;endArrow=classic;html=1;rounded=0;fillColor=#f5f5f5;strokeColor=#666666;startWidth=131.0344827586207;endWidth=26.753864447086798;startSize=5.048275862068966;endSize=6.951724137931035;width=26.20689655172414;fontSize=12;" edge="1" parent="1">
          <mxGeometry width="50" height="50" relative="1" as="geometry">
            <mxPoint x="172.5" y="776" as="sourcePoint" />
            <mxPoint x="101" y="830" as="targetPoint" />
            <Array as="points">
              <mxPoint x="102.5" y="776" />
            </Array>
          </mxGeometry>
        </mxCell>
        <mxCell id="10KFFIFYPMZaA8trMSRA-2" value="&lt;b&gt;DB&lt;/b&gt;" style="shape=cylinder3;whiteSpace=wrap;html=1;boundedLbl=1;backgroundOutline=1;size=15;strokeWidth=3;" vertex="1" parent="1">
          <mxGeometry x="23" y="456.5" width="60" height="80" as="geometry" />
        </mxCell>
        <mxCell id="WWRZg-ttkqtkzMgX7KjE-70" value="PARSING&lt;br&gt;PHASE" style="text;html=1;align=center;verticalAlign=middle;whiteSpace=wrap;rounded=0;fontSize=16;fontStyle=1" vertex="1" parent="1">
          <mxGeometry x="659" y="353" width="90" height="30" as="geometry" />
        </mxCell>
        <mxCell id="WWRZg-ttkqtkzMgX7KjE-71" value="BUILDING&lt;br&gt;PHASE" style="text;html=1;align=center;verticalAlign=middle;whiteSpace=wrap;rounded=0;fontSize=16;fontStyle=1" vertex="1" parent="1">
          <mxGeometry x="88" y="721" width="90" height="30" as="geometry" />
        </mxCell>
      </root>
    </mxGraphModel>
  </diagram>
</mxfile>
